<?xml version="1.0" encoding="utf-8"?>
<!-- Generator: Adobe Illustrator 26.1.0, SVG Export Plug-In . SVG Version: 6.00 Build 0)  -->
<svg version="1.1" id="Capa_1" xmlns="http://www.w3.org/2000/svg" xmlns:xlink="http://www.w3.org/1999/xlink" x="0px" y="0px"
	 viewBox="0 0 817 170" style="enable-background:new 0 0 817 170;" xml:space="preserve">
<style type="text/css">
	.st0{fill:#575B5C;}
	.st1{fill:#0066CD;}
	.st2{fill:#FF1979;}
</style>
<g>
	<path class="st0" d="M638.45,65.69c0.59,0,1.44,0,2.22,0c1.99,0,3.98-1.18,3.98-4.91c0.08-0.66,0-1.32-0.21-1.94
		c-0.23-0.62-0.57-1.19-1.05-1.66c-0.45-0.47-1.03-0.83-1.64-1.07c-0.64-0.23-1.29-0.32-1.95-0.27h-1.44v9.76L638.45,65.69z
		 M640.56,54.13c0.84-0.08,1.68,0.02,2.5,0.3c0.8,0.28,1.52,0.73,2.13,1.33c0.62,0.59,1.07,1.31,1.37,2.1
		c0.29,0.79,0.41,1.64,0.35,2.48c0.04,0.96-0.14,1.91-0.51,2.8c-0.37,0.89-0.9,1.69-1.62,2.35c-0.7,0.66-1.52,1.17-2.44,1.48
		c-0.9,0.32-1.89,0.44-2.85,0.36h-3.3v-13.2H640.56z M626.02,56.39l-1.93,5.63h3.82L626.02,56.39z M628.34,63.87h-4.9l-1.25,3.64
		h-2.28l4.82-13.11l2.4-0.29l4.82,13.4h-2.36L628.34,63.87z M608.79,65.74c0.55,0,1.44,0,2.19,0c1.97,0,3.98-1.18,3.98-4.91
		c0.06-0.65,0-1.31-0.23-1.93c-0.21-0.62-0.55-1.19-1.03-1.66c-0.45-0.47-1.03-0.83-1.64-1.07c-0.62-0.23-1.27-0.33-1.93-0.28h-1.44
		v9.76L608.79,65.74z M610.9,54.19c0.84-0.1,1.7-0.01,2.52,0.27c0.82,0.28,1.56,0.73,2.17,1.32c0.62,0.59,1.09,1.31,1.39,2.11
		c0.31,0.8,0.43,1.65,0.35,2.5c0.04,0.96-0.14,1.91-0.49,2.8c-0.37,0.89-0.92,1.69-1.62,2.35c-0.72,0.66-1.54,1.17-2.46,1.48
		c-0.9,0.32-1.87,0.44-2.83,0.36h-3.32v-13.2H610.9z M600.99,67.39h-2.26v-13.2h2.26V67.39z M585.24,57.54
		c0-2.08,1.89-3.64,4.66-3.64c1.31-0.02,2.63,0.15,3.9,0.49l-0.39,1.88c-1.25-0.52-2.61-0.79-3.98-0.81c-1.13,0-2.01,0.61-2.01,1.59
		c0,0.98,0.76,1.67,2.77,2.46c3.22,1.3,3.9,2.28,3.9,4.04c0,2.37-2.09,3.93-5.31,3.93c-1.25-0.02-2.5-0.21-3.69-0.58l0.45-1.96
		c1.39,0.54,2.87,0.8,4.37,0.78c1.13,0,2.17-0.58,2.17-1.68c0-1.1-0.55-1.76-2.89-2.89c-2.83-0.61-3.88-1.47-3.88-3.55L585.24,57.54
		z M577.84,58.23c0-1.59-0.84-2.46-2.75-2.46h-1.33v4.42c0.57,0.05,1.15,0.05,1.72,0c0.29,0.06,0.57,0.05,0.86-0.01
		c0.29-0.07,0.55-0.2,0.8-0.38c0.23-0.18,0.41-0.41,0.53-0.67c0.14-0.26,0.21-0.55,0.21-0.84L577.84,58.23z M573.75,61.96v5.43
		h-2.26v-13.2h4.49c2.77,0,4.37,1.1,4.37,3.35c0,0.77-0.21,1.53-0.59,2.2c-0.41,0.66-0.98,1.2-1.68,1.56l3.32,6.09h-2.5l-2.67-5.52
		c-0.35,0.04-0.7,0.04-1.05,0L573.75,61.96z M558.76,54.19h7.96l-0.16,1.76h-5.42v3.93h5.03l-0.21,1.59h-4.82v4.33h5.97l-0.18,1.79
		h-8.08V54.48L558.76,54.19z M542.82,54.39l2.26-0.4l3.61,10.83l3.53-10.63h2.26l-4.82,13l-2.17,0.4L542.82,54.39z M538.72,67.39
		h-2.28v-13.2h2.28V67.39z M529.04,67.68l-6.75-10.05v9.76h-2.07v-13.2h2.28l6.46,9.76v-9.76h2.09v13L529.04,67.68z M504.55,54.19
		h2.28v8.17c0,2.57,1.25,3.44,3.43,3.44c1.42,0,2.46-0.87,2.46-2.89v-8.66h2.22v8.29c0,3.35-1.81,5.11-5.39,5.11
		c-2.91,0-4.94-1.47-4.94-4.54L504.55,54.19z"/>
	<path class="st0" d="M684.23,78.57h4.27v21.06l10.5-0.2l-0.49,3.38h-14.36V78.57H684.23z M666.14,82.7l-3.63,10.4h7.24L666.14,82.7
		z M670.88,96.25h-9.42l-2.28,6.64h-4.31l9.25-24.23l4.49-0.58l9.13,24.81h-4.57L670.88,96.25z M644.89,103.38l-12.86-18.57v18.08
		h-3.9V78.57h4.29l12.18,17.97V78.57h3.92v24.03L644.89,103.38z M607.99,81.37c-3.82,0-6.83,2.4-6.83,8.67
		c0,7.22,3.3,10.11,8.16,10.11c3.82,0,6.87-2.4,6.87-8.84C616.21,84.23,612.81,81.37,607.99,81.37z M607.72,103.38
		c-6.48,0-10.95-4.42-10.95-12.13c-0.14-1.75,0.1-3.5,0.72-5.14c0.59-1.64,1.56-3.14,2.79-4.39s2.73-2.22,4.37-2.85
		c1.64-0.63,3.41-0.9,5.17-0.8c6.46,0,10.93,4.42,10.93,12.22c0.14,1.75-0.1,3.5-0.72,5.14c-0.62,1.64-1.56,3.13-2.81,4.38
		c-1.25,1.24-2.73,2.2-4.39,2.82c-1.64,0.62-3.41,0.87-5.17,0.75H607.72z M589.22,102.89h-4.27V78.57h4.27V102.89z M578,101.65
		c-2.42,1.14-5.07,1.73-7.73,1.73c-6.95,0-11.98-4.25-11.98-12.42c-0.12-1.7,0.12-3.41,0.72-5.02c0.62-1.6,1.54-3.06,2.75-4.28
		c1.21-1.22,2.67-2.17,4.27-2.79c1.6-0.62,3.32-0.89,5.03-0.8c2.3-0.08,4.59,0.28,6.75,1.07l-1.05,3.47
		c-2.22-0.8-4.57-1.22-6.95-1.24c-3.43,0-7.04,2.11-7.04,9.01c0,6.9,4.57,9.73,8.74,9.73c1.91-0.01,3.79-0.45,5.52-1.27L578,101.65z
		 M542.68,82.7l-3.65,10.4h7.24L542.68,82.7z M547.42,96.25h-9.44l-2.26,6.64h-4.31l9.25-24.23l4.47-0.58l9.13,24.81h-4.55
		L547.42,96.25z M521.41,103.38l-12.84-18.57v18.08h-3.9V78.57h4.27l12.18,17.97V78.57h3.94v24.03L521.41,103.38z"/>
	<path class="st0" d="M520.28,114.88h8.23l-0.21,1.67h-5.58v3.78h5.21l-0.21,1.5h-5V126h6.17l-0.18,1.7h-8.35v-12.53L520.28,114.88z
		 M506.76,125.82c0.57,0,1.48,0,2.24,0c2.07,0,4.12-1.13,4.12-4.71c0.04-0.65-0.06-1.31-0.29-1.92c-0.25-0.61-0.62-1.16-1.09-1.61
		c-0.49-0.45-1.05-0.79-1.68-1c-0.62-0.21-1.29-0.28-1.93-0.21h-1.46v9.36L506.76,125.82z M509,114.88c0.84-0.13,1.7-0.07,2.52,0.17
		c0.82,0.24,1.58,0.66,2.22,1.23c0.66,0.56,1.15,1.26,1.5,2.05c0.33,0.78,0.49,1.63,0.45,2.48c0,0.96-0.23,1.9-0.62,2.77
		c-0.41,0.87-0.98,1.64-1.7,2.27c-0.72,0.63-1.58,1.11-2.48,1.39c-0.92,0.29-1.89,0.38-2.85,0.27h-3.43v-12.53h4.51L509,114.88z"/>
	<path class="st0" d="M643.02,117.24l-1.93,5.17h3.86L643.02,117.24z M645.5,123.97h-4.98l-1.21,3.27h-2.26l4.98-12.1l2.38-0.26
		l4.88,12.36h-2.4L645.5,123.97z M633.07,127.24h-2.3v-12.1h2.3V127.24z M623.93,123.97c0-1.39-1.17-2.19-3.26-2.19h-1.64v3.9h2.4
		C622.84,125.8,623.93,125.33,623.93,123.97z M623.13,118.69c0-1.27-0.76-1.99-2.89-1.99h-1.09v3.72h1.33
		c2.05,0,2.65-0.72,2.65-1.67V118.69z M616.71,115.14h4.12c2.77,0,4.31,1.01,4.31,2.89c-0.02,0.64-0.25,1.25-0.62,1.76
		c-0.37,0.51-0.9,0.91-1.5,1.12c0.76,0,1.5,0.3,2.05,0.85c0.55,0.54,0.84,1.28,0.84,2.04c0,2.19-2.09,3.64-5.64,3.64h-3.57v-12.19
		V115.14z M599.25,118.03l-0.94,9.36h-1.95l1.62-12.1h2.38l3.94,9.73l3.79-9.73h2.4l1.54,12.1h-2.22l-0.96-9.36l-3.63,9.07
		l-2.01,0.29L599.25,118.03z M585.67,116.64c-1.99,0-3.63,1.18-3.63,4.39c0,3.21,1.72,5.08,4.31,5.08c2.01,0,3.63-1.18,3.63-4.45
		s-1.54-5.17-4.12-5.17L585.67,116.64z M585.51,127.64c-0.8,0.04-1.6-0.09-2.36-0.39c-0.74-0.3-1.42-0.75-1.97-1.33
		c-0.55-0.58-0.96-1.27-1.23-2.03c-0.25-0.76-0.35-1.56-0.27-2.35c-0.04-0.89,0.12-1.79,0.45-2.62c0.35-0.83,0.86-1.58,1.5-2.2
		c0.66-0.62,1.44-1.09,2.3-1.38c0.84-0.3,1.76-0.4,2.65-0.32c0.8-0.04,1.62,0.09,2.36,0.39c0.74,0.3,1.42,0.75,1.97,1.33
		c0.55,0.58,0.98,1.27,1.23,2.03c0.27,0.76,0.35,1.56,0.27,2.35c0,0.86-0.16,1.71-0.51,2.5c-0.33,0.79-0.84,1.51-1.48,2.1
		c-0.62,0.59-1.37,1.05-2.17,1.34c-0.82,0.29-1.68,0.41-2.56,0.36L585.51,127.64z M568.87,115.28h2.28v10.54h5.54l-0.16,1.65h-7.65
		V115.28z M557.47,116.64c-2.01,0-3.63,1.18-3.63,4.39c0,3.21,1.74,5.08,4.31,5.08c2.01,0,3.63-1.18,3.63-4.45s-1.54-5.17-4.12-5.17
		L557.47,116.64z M557.47,127.64c-0.8,0.04-1.6-0.09-2.34-0.39c-0.76-0.3-1.44-0.75-1.99-1.33c-0.53-0.58-0.96-1.27-1.23-2.03
		c-0.25-0.76-0.33-1.56-0.25-2.35c-0.04-0.89,0.1-1.79,0.43-2.62c0.33-0.83,0.84-1.58,1.5-2.2c0.66-0.62,1.42-1.09,2.28-1.38
		c0.84-0.3,1.76-0.4,2.65-0.32c0.8-0.04,1.62,0.09,2.36,0.39c0.74,0.3,1.42,0.75,1.97,1.33c0.55,0.58,0.98,1.27,1.23,2.03
		c0.27,0.76,0.35,1.56,0.27,2.35c0,0.87-0.18,1.72-0.53,2.51c-0.33,0.79-0.84,1.51-1.48,2.1c-0.64,0.59-1.39,1.05-2.22,1.34
		c-0.82,0.29-1.68,0.41-2.54,0.35L557.47,127.64z M548.48,126.75c-1.27,0.61-2.69,0.91-4.1,0.9c-0.84,0.07-1.68-0.04-2.48-0.32
		c-0.78-0.28-1.5-0.73-2.11-1.32c-0.59-0.59-1.07-1.3-1.35-2.08c-0.29-0.78-0.41-1.62-0.35-2.46c-0.04-0.88,0.12-1.75,0.45-2.57
		c0.33-0.81,0.84-1.55,1.48-2.16c0.64-0.61,1.39-1.07,2.24-1.37c0.84-0.3,1.72-0.41,2.61-0.34c1.21-0.05,2.42,0.14,3.55,0.55
		l-0.57,1.7c-1.21-0.39-2.46-0.61-3.73-0.63c-1.83,0-3.71,1.01-3.71,4.56c-0.08,0.64-0.02,1.28,0.18,1.89
		c0.21,0.61,0.55,1.16,1.01,1.62c0.45,0.46,0.98,0.82,1.6,1.04c0.59,0.23,1.25,0.32,1.89,0.27c1.01-0.03,1.99-0.25,2.91-0.64
		L548.48,126.75z"/>
	<path class="st0" d="M473.33,96.22c0,1.42,0,1.79,0,2.54c-0.06,3.38,1.23,6.64,3.59,9.07c1.72,1.95,3.2,4.12,4.37,6.44
		c1.39-1.82,2.11-4.05,2.07-6.33c0-2.64-0.74-5.23-2.15-7.46c-1.44-2.23-3.47-4.01-5.89-5.13c3.9,4.09,6.09,9.5,6.15,15.13
		c-0.76-5.41-3.18-10.46-6.93-14.44c1.11,4.19,2.73,8.23,4.86,12.01C476.42,104.67,474.33,100.6,473.33,96.22z M473.98,84.29
		c0.41,1.42,1.21,2.7,2.34,3.66c1.13,0.96,2.52,1.57,4,1.74c0.9,0.05,1.78-0.15,2.54-0.59c0.78-0.43,1.42-1.08,1.83-1.86
		c-0.25,0.97-0.8,1.84-1.58,2.46c-0.8,0.62-1.78,0.95-2.79,0.95c-1.56-0.08-3.08-0.62-4.33-1.55c-1.27-0.93-2.24-2.21-2.77-3.68
		c0.47,4.27,2.77,7.68,7.22,7.68c0.8,0.02,1.58-0.12,2.32-0.41c0.74-0.29,1.39-0.73,1.97-1.29c0.55-0.56,0.98-1.23,1.27-1.96
		c0.29-0.73,0.43-1.52,0.41-2.31c0-2.89-1.64-4.91-3.71-4.91c-0.23-0.02-0.47,0.02-0.7,0.12c-0.21,0.1-0.41,0.26-0.53,0.45
		c0.27-0.21,0.59-0.31,0.94-0.29c0.23,0,0.43,0.05,0.64,0.14c0.18,0.09,0.37,0.22,0.51,0.38c0.14,0.16,0.25,0.35,0.31,0.55
		c0.06,0.21,0.08,0.42,0.06,0.63c0,1.62-1.33,2.89-3.61,2.89c-1.19-0.02-2.36-0.29-3.45-0.77C475.79,85.84,474.8,85.15,473.98,84.29
		z M480.24,86.08c0.57,0,2.09,0,2.46-1.21c0,0.17-0.37,0.29-0.86,0.29c-0.23,0-0.43-0.05-0.64-0.14c-0.21-0.09-0.39-0.22-0.53-0.38
		c-0.14-0.16-0.27-0.35-0.33-0.55c-0.08-0.21-0.12-0.42-0.1-0.64c0-0.3,0.06-0.59,0.18-0.86c0.12-0.27,0.31-0.51,0.53-0.7
		c0.23-0.2,0.47-0.34,0.76-0.43c0.29-0.09,0.57-0.12,0.88-0.09c0.7,0.06,1.35,0.26,1.97,0.59c0.62,0.33,1.17,0.77,1.6,1.31
		c0.43,0.54,0.76,1.16,0.94,1.83c0.18,0.67,0.23,1.36,0.14,2.05c0.02,0.91-0.12,1.82-0.45,2.68c-0.35,0.85-0.84,1.63-1.5,2.27
		c-0.66,0.65-1.44,1.15-2.28,1.49c-0.86,0.34-1.78,0.49-2.71,0.46c-4.16,0-8.02-3.12-8.02-9.45c-0.04-1.27,0.1-2.54,0.37-3.78
		c0.66,1.49,1.7,2.77,3.04,3.7C477.04,85.45,478.62,85.99,480.24,86.08z M480.05,97.63c1.39,1.33,2.5,2.93,3.24,4.71
		c0.72,1.78,1.07,3.68,1.01,5.6c0.12,1.49-0.12,2.99-0.74,4.35c-0.62,1.37-1.56,2.56-2.75,3.47c-1.01-2.75-2.58-5.26-4.64-7.37
		c-1.31-1.27-2.32-2.79-3.02-4.46c-0.68-1.67-1.01-3.47-0.98-5.27c0.02-2.3,0.43-4.58,1.25-6.73c1.23,2.37,4.08,3.23,6.6,5.69
		H480.05z M474.23,69.64c0.23-2.67,0.64-5.33,1.23-7.94c-1.97,2.67-3.14,5.85-3.38,9.16c-0.02,2.11,0.43,4.2,1.33,6.11
		c0.9,1.91,2.22,3.6,3.86,4.95c0-4.45,2.44-8.67,2.44-13.06c0.1-2.73-0.76-5.4-2.44-7.57c0.41,1.99,0.59,4.03,0.55,6.07
		c-0.18,3.63-0.84,7.22-1.97,10.69c0.51-3.54,0.82-7.11,0.92-10.69c0.04-1.94-0.14-3.88-0.55-5.78c-0.64,2.61-1.05,5.27-1.21,7.94
		c-0.21,1.79-0.41,3.67-0.49,5.46C474.27,73.22,474.19,71.43,474.23,69.64z M480.67,68.86c0,4.45-2.46,8.66-2.46,12.97
		c-0.02,0.68,0.12,1.36,0.37,1.99c-2.3-1.29-4.21-3.17-5.52-5.43c-1.33-2.26-2.03-4.83-2.03-7.45c0-6.12,3.98-8.67,3.98-11.55
		c0.06-0.25,0.06-0.5,0-0.75c1.76,1.02,3.22,2.51,4.2,4.3c0.96,1.79,1.42,3.81,1.31,5.84L480.67,68.86z M471.95,145.64h-0.49
		l-0.47-2.08l0.18,1.42v1.21h-0.55v-3.7h0.66l0.47,1.42v0.75v-0.84l0.37-1.62h0.76v3.29l-0.57,0.29v-1.24l0.21-1.42L471.95,145.64z
		 M486.06,56.68c0.06-0.76-0.18-1.52-0.68-2.1c-0.51-0.58-1.21-0.95-1.99-1.02c-0.25-0.04-0.51-0.04-0.78,0
		c0.16-0.04,0.33-0.04,0.47,0c0.16,0.03,0.31,0.11,0.41,0.21c0.12,0.1,0.23,0.23,0.29,0.37c0.06,0.15,0.1,0.3,0.08,0.46
		c0,0.17-0.02,0.35-0.08,0.51c-0.08,0.16-0.16,0.31-0.29,0.43c-0.14,0.13-0.29,0.22-0.45,0.29c-0.16,0.07-0.33,0.1-0.51,0.09
		c-1.81,0-1.81-2.45-5.83-2.89c1.52-0.48,2.81-1.43,3.73-2.71c0.92-1.27,1.42-2.8,1.39-4.37c-0.53-0.11-1.09-0.18-1.62-0.2
		c-1.19,0.03-2.32,0.34-3.34,0.93c-1.03,0.58-1.87,1.4-2.48,2.4c0.25-0.82,0.35-1.68,0.29-2.54c0-3.52-1.68-4.94-1.68-7.19
		c0-0.48,0.06-0.95,0.16-1.42c-0.23,0.02-0.45,0.08-0.66,0.17c-2.65,1.13-4.33,3.99-4.33,8.43c0.02,2.33,0.68,4.61,1.89,6.62
		c-0.68-5.49-0.49-9.76,1.42-12.68c-1.11,4.07-1.29,8.33-0.57,12.48c0.82-2.72,1.42-5.5,1.81-8.32c0.16,2.92-0.14,5.85-0.96,8.66
		c2.07-2.62,4.8-4.67,7.88-5.98c-2.79,1.68-5.23,3.86-7.2,6.44c2.05-1.08,4.04-2.27,5.95-3.58c-1.62,1.69-3.51,3.09-5.58,4.16
		c1.64-0.07,3.26,0.25,4.74,0.93c2.73,1.82,4.53,3.41,6.34,2.08c-1.6,1.99-3.98,0.41-6.63-1.21c-1.33-0.8-2.89-1.13-4.45-0.95
		c3.14,1.42,6.17,4.82,9.48,4.82c0.49,0.09,0.98,0.06,1.46-0.08c0.47-0.14,0.9-0.38,1.27-0.71c0.37-0.33,0.64-0.74,0.82-1.19
		c0.18-0.46,0.25-0.94,0.21-1.43L486.06,56.68z M468.61,142.72v2.66c0,0.46,0,0.55,0.37,0.55c0.06,0,0.12-0.02,0.16-0.04
		c0.06-0.03,0.1-0.06,0.14-0.1c0.02-0.04,0.06-0.09,0.06-0.15c0.02-0.05,0.02-0.11,0.02-0.17v-2.89h0.66v2.66
		c0,0.84-0.45,1.3-1.05,1.3c-0.16,0-0.31-0.04-0.47-0.11c-0.14-0.07-0.27-0.17-0.39-0.29c-0.1-0.12-0.18-0.27-0.23-0.42
		c-0.04-0.16-0.06-0.32-0.04-0.48v-2.89L468.61,142.72z M470.5,55.26c-2.01-2.45-3.12-5.51-3.12-8.67c0-6.15,3.69-9.56,6.93-9.56
		c-0.21,0.68-0.31,1.38-0.29,2.08c0,2.89,1.78,3.78,1.78,7.57c1.29-0.95,2.85-1.47,4.45-1.5c0.88-0.03,1.74,0.1,2.56,0.38
		c0.18,1.5-0.08,3.03-0.78,4.38c-0.7,1.35-1.78,2.46-3.12,3.19c0.88,0.35,1.64,0.89,2.28,1.59c0.04-0.52,0.31-1.01,0.72-1.34
		c0.41-0.34,0.92-0.5,1.46-0.45c0.49,0.01,0.98,0.11,1.44,0.31c0.45,0.2,0.86,0.49,1.21,0.85c0.33,0.36,0.59,0.79,0.76,1.25
		c0.16,0.46,0.23,0.96,0.21,1.45c-0.02,0.56-0.14,1.1-0.37,1.61c-0.25,0.51-0.57,0.96-1.01,1.33c-0.41,0.37-0.9,0.66-1.44,0.84
		c-0.51,0.18-1.09,0.25-1.64,0.21c-4.78-0.11-8.16-5.58-12.16-5.58L470.5,55.26z M466.93,143.56c0-0.08-0.02-0.16-0.04-0.24
		c-0.02-0.07-0.06-0.14-0.12-0.2c-0.06-0.06-0.12-0.11-0.18-0.14c-0.08-0.03-0.16-0.05-0.25-0.06v1.42
		c0.18-0.09,0.47-0.38,0.47-0.87L466.93,143.56z M466.93,146.45l-0.47-1.13v-0.29h-0.29v1.24h-0.59v-4.42l0.76,0.2
		c0.33,0.07,0.62,0.25,0.8,0.51c0.18,0.26,0.29,0.58,0.25,0.9c0,0.18-0.04,0.36-0.1,0.52c-0.08,0.16-0.21,0.3-0.35,0.41l0.76,1.82
		L466.93,146.45z M478.84,120.45c-0.08-2.16-0.68-4.26-1.72-6.15c-1.07-1.89-2.54-3.51-4.33-4.73c2.73,3.87,4.14,8.53,3.98,13.26
		c-0.68-4.64-2.4-9.07-5.03-12.97c0.29,4.27-1.23,8.9-3.77,9.73c1.17-1.32,2.03-2.9,2.46-4.6c0.45-1.71,0.47-3.5,0.08-5.22
		c-1.05,5.78-2.89,8.9-5.8,10.02c0.88,0.79,2.03,1.23,3.22,1.24c2.75,0,5.01-1.91,5.01-7.11c0,6.44,2.48,8.41,2.48,10.86
		c0,1.99-1.44,2.89-2.91,2.57c2.15,1.27,6.32-1.18,6.32-7.22L478.84,120.45z M465.2,146.07l-1.6-0.58v-3.87l1.6,0.58v0.55
		l-0.92-0.38v1.04l0.76,0.2v0.58l-0.76-0.29v0.84l0.92,0.29V146.07z M472.18,136.08c-1.39,0.13-2.73,0.61-3.86,1.42
		c-0.7,0.5-1.48,0.86-2.3,1.05c-0.84,0.19-1.7,0.22-2.54,0.07c2.11,0.89,4.35,1.38,6.65,1.44c2.17,0,4.45-0.87,4.45-2.37
		C474.66,136.97,473.82,136.08,472.18,136.08z M463.03,119.07c5.58-1.42,5.81-7.66,7.34-12.85c6.93,4.82,9.5,9.07,9.5,13.98
		c0,5.78-2.91,8.23-6.05,8.23c-0.37,0.03-0.72,0-1.07-0.1c-0.33-0.11-0.66-0.28-0.92-0.51c-0.27-0.23-0.49-0.51-0.66-0.83
		c-0.14-0.32-0.25-0.66-0.27-1.02c0-0.45,0.18-0.87,0.49-1.19c0.33-0.32,0.74-0.5,1.19-0.52c0.35-0.01,0.7,0.08,0.98,0.26
		c0.29,0.19,0.51,0.46,0.66,0.78c0.25-0.29,0.25-0.46,0.25-0.95c0-1.21-1.31-3.29-1.68-5.37c-0.49,0.83-1.19,1.52-2.05,1.98
		c-0.84,0.46-1.81,0.69-2.77,0.65c-0.98,0.13-1.99-0.04-2.87-0.49c-0.88-0.45-1.6-1.15-2.07-2.02V119.07z M463.03,136.16
		c-0.04,0.21-0.02,0.42,0.06,0.62c0.06,0.2,0.16,0.38,0.31,0.54c0.14,0.15,0.33,0.27,0.51,0.35c0.21,0.08,0.41,0.11,0.62,0.1
		c1.58-0.2,3.08-0.79,4.37-1.7c-0.45-0.53-0.98-0.96-1.62-1.27c-0.62-0.31-1.29-0.49-1.99-0.53c-1.42,0.12-2.38,0.78-2.38,1.79
		L463.03,136.16z M463.03,140.99l0.57,0.29l-0.57,3.7l-1.15-0.49l-0.45-4.16l0.64,0.29l0.29,2.46v1.04h0.21v-1.04L463.03,140.99z
		 M459.63,141.65c0-0.12,0.04-0.24,0.12-0.33c0.1-0.09,0.23-0.14,0.35-0.14c0.12,0,0.23,0.05,0.33,0.14
		c0.08,0.09,0.12,0.2,0.12,0.33s-0.04,0.24-0.12,0.33c-0.1,0.09-0.21,0.14-0.33,0.14c-0.12,0-0.25-0.05-0.35-0.14
		C459.67,141.89,459.63,141.77,459.63,141.65z M459.24,97.78c-0.29,0-0.57,0.29-1.13,0.38v2.89l1.6-2.28
		c0.06-0.11,0.08-0.22,0.06-0.34c0-0.12-0.04-0.23-0.1-0.33c-0.08-0.1-0.16-0.18-0.29-0.23c-0.1-0.05-0.23-0.07-0.35-0.06
		L459.24,97.78z M458.78,143.18l-1.64-0.58v-4.16l1.64,0.75v0.58l-0.96-0.38v1.04l0.84,0.26v0.58l-0.84-0.29v1.24l0.96,0.29V143.18z
		 M457.33,98.53c-0.35,0.05-0.7,0.05-1.05,0v5.11l1.05-1.5V98.53z M455.89,139.37c0.02-0.17-0.02-0.34-0.12-0.48
		c-0.1-0.14-0.25-0.24-0.43-0.27v1.33c0.18-0.06,0.55-0.26,0.55-0.72V139.37z M456.1,142.26l-0.45-1.44v-0.38h-0.27v1.42l-0.57-0.29
		v-4.16l0.57,0.29c0.92,0.38,1.21,0.84,1.21,1.42c0.02,0.18-0.02,0.37-0.1,0.54c-0.08,0.17-0.21,0.31-0.35,0.42l0.92,2.34
		L456.1,142.26z M454.68,98.53v7.57l1.05-1.5v-6.07H454.68z M459.34,29.52c-0.04-0.23,0-0.45,0.06-0.67
		c0.06-0.22,0.18-0.42,0.33-0.59c0.14-0.17,0.33-0.31,0.55-0.41c0.21-0.1,0.43-0.15,0.66-0.16c0.37,0,0.74,0.15,1.01,0.41
		c0.27,0.26,0.41,0.63,0.41,1c0,0.78-0.57,1.62-2.01,1.44c0.64,0.44,1.42,0.63,2.19,0.55c0.35,0,0.7-0.08,1.03-0.22
		c0.31-0.14,0.59-0.35,0.84-0.61c0.25-0.26,0.43-0.56,0.53-0.89c0.12-0.33,0.18-0.68,0.14-1.03c0-0.52-0.1-1.04-0.33-1.51
		c-0.21-0.48-0.51-0.9-0.92-1.25c-0.39-0.35-0.84-0.61-1.35-0.76c-0.49-0.16-1.03-0.21-1.54-0.15c-3.12,0-6.73,2.89-6.73,9.73
		c0,4.93,1.78,9.69,5,13.43c-2.17,0.46-3.32,1.7-3.32,3.29c-0.02,0.78,0.21,1.54,0.68,2.17c0.51-0.79,1.21-1.45,2.01-1.95
		c0.8-0.5,1.7-0.82,2.65-0.94c-0.66-0.28-1.35-0.38-2.05-0.3c-0.7,0.08-1.37,0.35-1.93,0.77c0.39-0.72,1.01-1.28,1.76-1.59
		c0.76-0.31,1.6-0.35,2.38-0.11c-5.5-10.11-6.34-16.35-4.62-19.96c-0.57,3.61-0.57,9.1,5.58,19.3c0.55-8.12-2.91-9.74-3.98-15.4
		c1.6,5.37,5.5,6.99,5.03,15.51c1.07-1.57,1.62-3.42,1.6-5.31c0.29-5.83-5.66-9.53-5.66-13.86V29.52z M453.51,34.43
		c0-7.39,3.88-10.6,7.57-10.6c0.64-0.06,1.27,0.02,1.89,0.22c0.62,0.2,1.17,0.52,1.66,0.95c0.47,0.42,0.86,0.94,1.13,1.52
		c0.27,0.58,0.41,1.21,0.43,1.84c0.02,0.46-0.06,0.92-0.25,1.34c-0.16,0.43-0.41,0.82-0.74,1.14c-0.33,0.33-0.72,0.58-1.15,0.76
		c-0.43,0.17-0.88,0.26-1.35,0.25c-0.7,0.03-1.39-0.13-2.01-0.46c1.81,3.96,5.58,6.53,5.58,11.73c0.02,1.42-0.25,2.83-0.82,4.14
		c-0.57,1.3-1.42,2.47-2.48,3.43c-1.27,0.1-2.5,0.54-3.55,1.27c-1.05,0.73-1.89,1.73-2.42,2.89c-0.51-0.47-0.92-1.04-1.21-1.68
		c-0.29-0.63-0.45-1.32-0.47-2.02c-0.02-0.84,0.27-1.67,0.8-2.32c0.53-0.66,1.27-1.1,2.11-1.26c-3.14-3.69-4.82-8.38-4.78-13.2
		L453.51,34.43z M454.07,98.44c-0.47,0-0.76-0.29-1.13-0.38v10.57l1.13-1.59V98.44z M453.14,43.3c-0.25-0.09-0.45-0.26-0.59-0.48
		c-0.12-0.22-0.18-0.48-0.16-0.73c0-0.75,0.47-1.33,0.47-2.28c0.59,0.58,0.96,1.36,1.05,2.19c0,0.27-0.06,0.53-0.21,0.75
		c-0.14,0.22-0.37,0.4-0.62,0.49L453.14,43.3z M452.04,138.97l0.55,0.29v-1.99l-0.18,0.75L452.04,138.97z M453.08,45.27
		c-0.27-0.01-0.53-0.07-0.76-0.19c-0.25-0.12-0.45-0.29-0.62-0.49c-0.16-0.21-0.29-0.45-0.33-0.7c-0.06-0.26-0.06-0.52-0.02-0.78
		c0.29,0.29,1.72,0.46,1.6,1.7c0-1.24,1.25-0.95,1.72-1.62v0.58c-0.02,0.4-0.21,0.78-0.51,1.06c-0.29,0.27-0.68,0.42-1.09,0.41
		V45.27z M452.32,97.75l-1.13-0.66v14.09l1.13-1.62V97.75z M454.29,141.54l-1.7-0.78v-0.93l-0.76-0.29l-0.27,0.84l-0.57-0.26
		l1.13-3.61l2.17,0.87v0.66l-0.94-0.4v0.95l0.78,0.29v0.58l-0.78-0.29v1.04l0.94,0.38V141.54z M450.95,45.32
		c-0.04-0.18-0.04-0.37,0-0.55c0.47,0.75,1.72,0.75,1.72,1.7c0.37-0.95,1.68-0.58,2.28-1.04c0,0.25-0.04,0.51-0.12,0.75
		c-0.08,0.24-0.23,0.46-0.41,0.64c-0.16,0.19-0.39,0.34-0.62,0.44c-0.25,0.1-0.49,0.16-0.76,0.16c-0.53-0.03-1.07-0.26-1.46-0.65
		C451.19,46.39,450.97,45.87,450.95,45.32z M451.63,66.32c0-0.06-0.02-0.13-0.04-0.18c-0.02-0.06-0.06-0.11-0.1-0.15
		c-0.04-0.04-0.1-0.08-0.16-0.1c-0.06-0.02-0.12-0.03-0.18-0.02c-0.06-0.01-0.12,0-0.18,0.02c-0.06,0.02-0.1,0.06-0.16,0.1
		c-0.04,0.04-0.06,0.1-0.08,0.15c-0.04,0.06-0.04,0.12-0.04,0.18c0,0.06,0,0.13,0.04,0.18c0.02,0.06,0.04,0.11,0.08,0.16
		c0.04,0.05,0.1,0.08,0.16,0.11c0.06,0.02,0.12,0.04,0.18,0.04c0.23-0.06,0.43-0.29,0.43-0.49H451.63z M450.21,47.32
		c0-0.29,0-0.46,0-0.55c0.37,0.75,2.09,0.84,2.09,2.08c0.25-1.16,1.97-0.58,2.65-1.33c0.02,0.27-0.02,0.55-0.12,0.81
		c-0.1,0.26-0.25,0.49-0.45,0.68c-0.21,0.19-0.45,0.34-0.7,0.42c-0.27,0.09-0.55,0.11-0.82,0.08c-1.5-0.09-2.71-0.87-2.71-2.19
		H450.21z M451.81,31.72v1.7c-0.02,2.65-0.33,5.28-0.94,7.86c-0.39-0.21-0.7-0.53-0.9-0.92c-0.21-0.39-0.29-0.84-0.23-1.27
		c-0.04-0.4-0.04-0.81,0-1.21c0.23-1.75,0.35-3.52,0.37-5.29c0-0.87,0-1.82,0-2.74c0.33,1.5,1.09,1.88,1.64,1.88H451.81z
		 M453.23,74.55l1.05-0.29c3.77-0.84,6.05-2.17,6.05-5.11c0-0.53-0.12-1.06-0.35-1.54c-0.23-0.49-0.53-0.92-0.94-1.28
		c-0.39-0.35-0.86-0.63-1.37-0.79c-0.51-0.17-1.05-0.22-1.58-0.17c-0.66-0.04-1.29,0.06-1.91,0.29c-0.59,0.23-1.15,0.58-1.62,1.04
		c-0.27,0.3-0.59,0.54-0.98,0.71c-0.37,0.16-0.78,0.25-1.19,0.25c-0.47,0-0.84-0.29-0.84-0.46c0-0.95,2.91-3.5,6.54-3.5
		c0.76-0.08,1.52,0,2.24,0.23c0.72,0.23,1.37,0.6,1.95,1.1c0.57,0.5,1.03,1.1,1.35,1.78c0.31,0.68,0.49,1.42,0.51,2.17
		c0,3.78-3.12,5.58-7.57,6.7l-1.42,0.29v-1.42H453.23z M451.19,136.08v2.89c0,0.14-0.04,0.27-0.1,0.4
		c-0.06,0.12-0.14,0.23-0.25,0.31c-0.12,0.08-0.25,0.14-0.39,0.17c-0.12,0.03-0.27,0.02-0.41-0.01c-0.57-0.2-0.94-0.58-0.94-1.62
		v-2.89l0.57,0.29v2.74c0,0.46,0.18,0.75,0.47,0.84c0.29,0.09,0.37,0,0.37-0.38v-2.89L451.19,136.08z M449.1,49.19
		c0-0.43,0.1-0.85,0.29-1.24c0,0.75,1.8,1.04,1.8,2.28v0.46c0.25-0.58,0.84-0.58,1.31-0.58c1.23,0,1.62,0,1.78,0
		c-0.08,0.49-0.33,0.93-0.72,1.24c-0.39,0.31-0.86,0.48-1.37,0.46c-1.25-0.06-3.1-1.01-3.1-2.6V49.19z M452.32,80.59v0.61
		c1.68,0.38,2.91,0.75,2.91,1.33h-6.73c0-0.58,0.96-0.95,2.65-1.33v-0.75L452.32,80.59z M448.34,103.26c0,3.99,1.89,5.58,2.26,7.66
		V96.48l-0.84-0.84c0,2.89-1.42,3.78-1.42,7.66V103.26z M448.71,128.6c0.76,0,4.37,0.2,5.03,0.2c2.91,0.01,5.78-0.47,8.53-1.42
		c-4.18,2.07-8.9,2.86-13.56,2.25c2.01,0.99,4.21,1.54,6.44,1.62c5.03,0,8.72-3.7,11.45-3.7c1.62,0,2.56,0.58,2.65,2.08
		c0.06-0.25,0.06-0.5,0-0.75c0-3.87-4.45-5.78-7.59-5.78c-4.16,0-9.95,3.21-14.01,4.45c4.82,0,10.24-2.45,14.54-2.45
		c1.21,0,2.42,0.19,3.59,0.55c-5.15-0.61-9.58,2.51-17.07,2.97V128.6z M447.67,53.5v1.99h0.39v-1.5l0.55,1.59h0.74v-1.99h-0.37v1.62
		l-0.47-1.53L447.67,53.5z M449.18,31.29c0.04,1.79-0.06,3.59-0.29,5.37c-1.15,0-1.23-1.21-1.23-2.08v-2.48c0-0.84,0-1.7,0-2.63
		c0.21,1.42,0.96,1.79,1.52,1.79V31.29z M451.07,79.69c-2.91-0.49-3.49-1.24-3.49-1.99s0.47-1.62,2.65-2.17v1.42
		c-0.76,0.17-0.96,0.38-0.96,0.75c0,0.38,0.29,0.58,1.81,0.87l1.25,0.26c3.32,0.66,4.16,1.91,4.53,2.46
		c0.08,0.22,0.14,0.44,0.18,0.66c0,0.38,0,0.78-0.27,0.78c-0.76,0,0-1.7-4.45-2.66L451.07,79.69z M446.74,136.8
		c0,0.75,0,1.42,0.55,1.42s0.45-0.58,0.45-1.42c0-0.84,0-1.42-0.53-1.42c-0.55,0-0.47,0.69-0.47,1.38V136.8z M450.15,93.68
		c0.53,1.07,1.35,1.97,2.4,2.59c1.03,0.62,2.22,0.94,3.41,0.91c1.31,0,2.48-0.55,3.49-0.55c0.45-0.01,0.86,0.15,1.19,0.45
		c0.33,0.3,0.51,0.71,0.53,1.14c-0.06,0.43-0.18,0.85-0.37,1.24l-9.5,14.76h-2.26l-0.47-1.24c0.16-0.1,0.31-0.24,0.41-0.41
		c0.08-0.17,0.14-0.35,0.14-0.55c0-2.17-2.52-3.96-2.52-8.32c0-3.87,1.6-5.37,1.6-6.9c0-0.6-0.16-1.19-0.47-1.7l0.92-1.3H450
		L450.15,93.68z M447.58,138.97c-0.96,0-1.33-0.84-1.33-2.17c0-1.33,0.37-1.99,1.13-1.99c0.76,0,1.23,0.84,1.23,2.28
		c0,0.75,0,1.21-0.55,1.42h0.37h0.47v0.75L447.58,138.97z M446.07,55.2l1.23,0.26v-0.38h-0.55v-0.46h0.47v-0.38h-0.47v-0.58
		l0.55,0.2v-0.4l-1.15-0.26v1.99H446.07z M450.52,42.43c-0.88,3.12-2.34,6.06-4.27,8.67c-0.12-0.04-0.23-0.12-0.29-0.23
		c-0.06-0.1-0.1-0.23-0.1-0.35c0.33-1.05,0.76-2.06,1.25-3.03c0.96-2.46,1.72-4.99,2.28-7.57c0.08,1.53,0.37,2.11,1.13,2.4V42.43z
		 M451.07,77.88v-4.45c-3.32-0.75-5.8-1.59-5.8-3.76h12.84c0,2.17-2.44,2.89-5.81,3.76v4.74L451.07,77.88z M446.74,31.26
		c0.04,0.54,0.04,1.08,0,1.62c0.02,1.27-0.12,2.54-0.39,3.78c-1.05-0.29-1.21-1.24-1.21-2.17c0-0.93,0-1.7,0-2.57
		c-0.02-0.85-0.12-1.7-0.29-2.54c0.64,1.39,1.29,1.76,1.89,1.76V31.26z M445.23,53.96c0,0.46-0.21,0.58-0.41,0.58v-1.42
		c0.33-0.12,0.33,0.06,0.33,0.72L445.23,53.96z M468.12,131.49c-0.21,0.02-0.43,0.01-0.64-0.05c-0.21-0.06-0.39-0.16-0.55-0.29
		c-0.16-0.13-0.31-0.3-0.41-0.48c-0.1-0.18-0.16-0.39-0.18-0.59c0-0.33,0.1-0.65,0.31-0.91c0.23-0.26,0.51-0.44,0.84-0.5
		c-2.4-0.66-6.26,3.7-12.33,3.7c-3.98-0.15-7.77-1.69-10.71-4.36c7.88-2.37,12.49-5.49,17.44-5.49s8.53,3.12,8.53,6.53
		c0,0.31-0.04,0.61-0.14,0.89c-0.12,0.29-0.29,0.55-0.51,0.77c-0.21,0.22-0.47,0.39-0.74,0.51c-0.29,0.12-0.59,0.17-0.9,0.17V131.49
		z M447.38,28.34c-0.14-1.92-0.88-3.74-2.15-5.2c-0.49-0.46-0.86-0.58-0.86-0.87c0-0.29,0.29-0.38,0.45-0.38
		c0.8,0,2.09,1.16,3.06,2.89c0.76,1.77,1.19,3.66,1.31,5.57c-0.92-0.06-1.6-0.72-1.81-2.14V28.34z M444.82,54.83
		c0.12,0.04,0.25,0.05,0.39,0.02c0.12-0.02,0.23-0.07,0.33-0.15c0.1-0.08,0.18-0.17,0.25-0.29c0.06-0.11,0.08-0.24,0.08-0.37
		c0.02-0.29-0.06-0.58-0.23-0.81c-0.16-0.24-0.41-0.41-0.7-0.49l-0.68-0.29v2.17L444.82,54.83z M443.97,136.08
		c0-0.06,0-0.13,0.02-0.19c0.04-0.06,0.06-0.11,0.1-0.16c0.04-0.05,0.1-0.08,0.16-0.11c0.06-0.03,0.12-0.04,0.18-0.04
		c0.06,0,0.12,0.01,0.18,0.03c0.06,0.02,0.12,0.06,0.16,0.11c0.06,0.05,0.08,0.1,0.12,0.16c0.02,0.06,0.02,0.13,0.02,0.19
		c0,0.06-0.02,0.13-0.04,0.18c-0.02,0.06-0.06,0.11-0.1,0.15c-0.04,0.04-0.1,0.08-0.16,0.1c-0.06,0.02-0.12,0.03-0.18,0.03
		C444.18,136.39,443.97,136.31,443.97,136.08z M448.79,37.73c-0.59,4.15-2.03,8.12-4.23,11.7c-0.18-0.03-0.33-0.13-0.45-0.27
		c-0.1-0.14-0.14-0.31-0.14-0.48c0.16-0.88,0.41-1.75,0.76-2.57c1.44-3.37,2.38-6.93,2.77-10.57c0,1.39,0.55,2.05,1.29,2.05V37.73z
		 M445.02,28.37c-0.14-1.5-0.64-2.95-1.42-4.25c0-0.29-0.29-0.38-0.29-0.58c0-0.2,0.29-0.38,0.37-0.38
		c0.21,0.04,0.41,0.13,0.57,0.26c0.16,0.13,0.31,0.3,0.39,0.49c1.23,1.93,1.91,4.16,1.97,6.44c-0.92-0.14-1.31-0.72-1.48-2.14
		L445.02,28.37z M443.32,52.95c0,0.29,0,0.38-0.27,0.29v-0.93c0.27,0,0.27,0.32,0.27,0.49V52.95z M444.45,30.36v2.08
		c0,0.93,0,1.97,0,3.12c-0.43-0.05-0.82-0.27-1.09-0.6c-0.27-0.34-0.39-0.76-0.35-1.19c0-0.58,0-1.62,0-2.66
		c0.06-0.82,0.06-1.64,0-2.45c0.12,0.89,0.68,1.56,1.44,1.56V30.36z M443.32,25.83c0.37,0,0.57,0.46,0.94,3.49
		c-1.13,0-1.42-1.24-1.42-2.28c0-1.04,0.21-1.36,0.47-1.36V25.83z M443.97,54.71l-0.47-1.13c0.12-0.03,0.23-0.09,0.29-0.18
		c0.06-0.09,0.1-0.2,0.1-0.31c0-0.38-0.29-0.55-0.84-0.75l-0.59-0.17v2.08l0.59,0.17v-0.75l0.27,0.95L443.97,54.71z M446.54,37.38
		c-0.64,3.65-1.95,7.14-3.88,10.31c-0.12-0.1-0.23-0.23-0.29-0.37c-0.06-0.15-0.1-0.31-0.08-0.47c0-0.78,0.16-1.56,0.47-2.28
		c1.17-3.02,1.99-6.16,2.46-9.36c0.08,1.42,0.55,1.99,1.31,2.08V37.38z M441.62,92.03c-0.16-0.05-0.33-0.16-0.43-0.32
		c-0.1-0.15-0.16-0.34-0.14-0.52c0-0.75,0.86-1.42,1.72-1.99v-3.96h0.16c0.29,4.25,0.29,4.71,0.29,5.2c0,1.04-0.84,1.79-1.6,1.5
		V92.03z M441.33,53.47c-0.29,0-0.29-0.49-0.29-0.75c0-0.26,0-0.87,0.29-0.78c0.29,0.09,0.29,0.38,0.29,0.87
		c0,0.49-0.08,0.58-0.29,0.58V53.47z M440.86,135.73h0.55v-1.13v-0.75l-0.16,0.75L440.86,135.73z M440.86,29.93
		c0-0.87,0.41-1.24,0.8-1.24c0.37,0,0.45,0.38,0.45,2.17c0.06,1.46-0.04,2.92-0.29,4.36c-0.45,0-1.13-0.75-1.13-1.79
		c0.08-1.19,0.1-2.39,0.06-3.58L440.86,29.93z M441.37,53.64c0.1,0.03,0.23,0.04,0.35,0.02c0.1-0.02,0.21-0.07,0.31-0.15
		c0.08-0.07,0.16-0.17,0.21-0.28c0.04-0.11,0.06-0.23,0.06-0.34c0-0.58-0.18-1.13-0.84-1.21c-0.68-0.09-0.84,0.26-0.84,0.92
		c0,0.66,0.06,0.87,0.64,0.95L441.37,53.64z M444.26,36.54c-0.55,3.49-1.74,6.86-3.51,9.94c-0.29,0-0.39-0.49-0.39-0.78
		c0.12-0.83,0.33-1.66,0.59-2.46c0.9-2.82,1.5-5.72,1.81-8.67c0.08,1.39,0.84,1.79,1.42,1.88L444.26,36.54z M441.88,36.05
		c-0.18,1.35-0.49,2.69-0.92,3.99c-0.49,0-0.88-0.75-0.88-1.62c0-0.87,0.49-2.89,0.59-4.16c-0.1,1.24,0.66,1.7,1.13,1.7
		L441.88,36.05z M443.13,137.52l-1.62-0.38v-0.75h-0.68l-0.27,0.78h-0.66l1.21-3.58c0.49,0,1.44,0.29,2.01,0.46v0.58l-0.96-0.29
		v0.95h0.84v0.58l-0.84-0.2v1.13l0.96,0.2V137.52z M440.22,93.27c-0.18-0.11-0.35-0.26-0.47-0.45c-0.12-0.18-0.21-0.39-0.25-0.61
		c-0.04-0.22-0.02-0.44,0.04-0.65c0.06-0.21,0.16-0.41,0.31-0.58l1.6-3.49h0.21l-1.25,3.41c0,0.58,0.57,1.33,0,1.99
		c0.86-0.58,1.62,0.29,2.56,0.29c-0.18,0.19-0.41,0.35-0.66,0.45c-0.25,0.11-0.51,0.16-0.78,0.16s-0.53-0.06-0.78-0.16
		c-0.25-0.1-0.47-0.26-0.64-0.45L440.22,93.27z M439.09,132.9h0.55v3.87h-0.55V132.9z M441.06,51.01c1.72,0,5.5,2.08,8.98,2.08
		c1.54,0.16,3.06-0.25,4.29-1.16c-0.29,3.7-1.81,4.65-4.66,4.65c-3.77,0-9.07-2.66-10.87-2.66c0.06-2.17,0.51-3.01,2.15-3.01
		L441.06,51.01z M438.6,94.6c-0.23-0.19-0.41-0.42-0.51-0.68c-0.12-0.26-0.18-0.55-0.18-0.83c0-0.29,0.06-0.57,0.18-0.83
		c0.1-0.26,0.29-0.49,0.51-0.68c0,0.84,1.25,1.79,0.49,2.54c0.76-0.75,1.68,0.58,2.44,0.58c-0.86,0.75-1.81,1.15-3.06-0.17
		L438.6,94.6z M437.96,55.64c-0.29,0-0.68,0-1.15-1.24c0.39,0.29,0.27,0,0.94,0.58c-0.33-0.31-0.62-0.66-0.84-1.04
		c0.92,0.46,1.42,0.95,1.42,1.42c-0.02,0.05-0.04,0.09-0.08,0.13c-0.02,0.04-0.06,0.07-0.12,0.09c-0.04,0.02-0.08,0.03-0.14,0.03
		c-0.04,0-0.1-0.02-0.14-0.04L437.96,55.64z M440.22,50.15l-0.49-0.75l-1.13-1.33l-1.03,0.38L437,49.02h-0.29l0.29-0.95l1.6-0.95
		l-0.55-2.63c0,0,0.29,0,0.55,0s0.37,0,0.49,0l0.27,2.63l2.56,0.95l0.37,0.75h-0.27l-0.29-0.38l-1.25-0.38l0.96,0.87v0.84h-0.27
		l-0.41-0.58l-1.31-1.04l0.76,1.24v0.84h-0.16L440.22,50.15z M438.89,42.29v0.87c0,0.46,0,0.84-0.37,0.84
		c-0.39,0-0.76-0.46-0.84-1.42c-0.02,0.31-0.12,0.61-0.33,0.86c-0.18,0.25-0.43,0.44-0.74,0.55c0-1.59,0-2.46,0.59-2.89
		c0.08,0.23,0.25,0.42,0.45,0.56c0.21,0.14,0.43,0.22,0.68,0.22c0.12,0,0.23-0.02,0.33-0.07c0.1-0.05,0.21-0.11,0.29-0.19
		c0.08-0.08,0.14-0.18,0.18-0.28c0.04-0.1,0.04-0.22,0.04-0.33c0.62,0.55,1.01,1.28,1.15,2.08c-0.33,0.05-0.66-0.01-0.94-0.18
		c-0.27-0.16-0.49-0.41-0.62-0.72L438.89,42.29z M438.6,39.58v0.75c0,0.55,0,0.84-0.47,0.84c-0.45,0-0.55-0.38-0.84-1.21
		c0,0.55-0.37,1.21-0.96,1.21v-0.75c0-1.79,0.39-2.28,1.72-2.28s1.42,0.49,1.97,2.28c-0.33,0.06-0.66,0-0.94-0.17
		c-0.29-0.17-0.49-0.44-0.59-0.75L438.6,39.58z M436.04,128.25c6.54-3.29,14.97-4.82,21.23-8.32c6.73-3.78,12.31-11.55,12.59-28.16
		c-2.91-0.29-4.18-1.62-4.37-3.41h-20.06c0.12,0.69,0.18,1.38,0.18,2.08c0,4.71-1.44,8.03-9.66,10.77v27.03H436.04z M437,56.96
		c-0.39,0-0.96-0.29-1.05-1.99c0.31,0.39,0.62,0.81,0.86,1.24c-0.23-0.55-0.43-1.12-0.57-1.7c0.84,0.84,1.23,1.41,1.23,1.96
		c-0.02,0.07-0.04,0.13-0.06,0.19c-0.04,0.06-0.08,0.11-0.14,0.15c-0.06,0.04-0.12,0.06-0.18,0.08c-0.06,0.01-0.14,0.01-0.21-0.01
		L437,56.96z M471.46,58.47c-0.74,0.15-1.48,0.11-2.19-0.1c-0.7-0.21-1.35-0.59-1.89-1.11c-0.47-0.51-0.84-1.13-1.05-1.81
		c-0.23-0.68-0.27-1.39-0.16-2.09l-1.52-0.75c-3.86,3.87-9.05,6.15-14.54,6.35c-3.45-0.02-6.83-0.8-9.95-2.28l-4.14,5.78v15.02
		c1.99,1.31,4.33,2,6.71,1.99c0.59,0,1.05,0,1.64,0l1.42,1.79c-0.43,1.15-0.62,2.38-0.57,3.61c-0.02,0.88,0.08,1.77,0.29,2.63h20.35
		c0-1.99,1.64-3.12,4.18-3.41c0-3.12-1.42-8.87-1.42-12.77c0.16-4.04,1.52-7.94,3.86-11.24L471.46,58.47z M436.71,134.69l-0.29-1.24
		v1.7v1.24h-0.59v-3.99h0.76l0.49,1.59v0.95V134l0.49-1.42h0.76v3.96h-0.57v-1.24v-1.7l-0.29,1.04l-0.27,0.95h-0.49V134.69z
		 M435.17,17.91c0.29,0,0.49,0,0.49-0.38c0-0.38-0.21-0.38-0.49-0.38c-0.31,0-0.47,0-0.47,0.38
		C434.7,17.91,434.99,17.91,435.17,17.91z M434.99,51.85v0.66h0.55v-0.66l0.49-1.21h-0.37l-0.29,0.95l-0.31-0.95h-0.55L434.99,51.85
		z M435.28,83.62c-0.25-0.03-0.45-0.15-0.64-0.32c-0.16-0.17-0.29-0.39-0.33-0.63c0.1-0.64,0.33-1.25,0.68-1.79V78.6h0.29v2.28
		c0.35,0.54,0.57,1.15,0.68,1.79c0.04,0.23,0,0.47-0.12,0.67c-0.12,0.2-0.31,0.34-0.55,0.4V83.62z M435.28,58.84
		c-0.45,0-0.84-0.2-0.84-1.04c0.02-0.78,0.18-1.55,0.47-2.28c0.21,0.55,0.33,1.12,0.37,1.7c0.06-0.58,0.18-1.15,0.39-1.7
		c0.31,0.72,0.47,1.5,0.49,2.28c-0.12,0.87-0.41,1.15-0.98,1.15L435.28,58.84z M433.88,136.45v-3.84h1.39v0.58h-0.84v1.04h0.76v0.58
		h-0.76v1.27h0.84v0.58L433.88,136.45z M437.21,146.3c-0.06-0.65-0.25-1.27-0.55-1.84c-0.33-0.57-0.74-1.07-1.25-1.48
		c-0.53,0.39-0.96,0.89-1.27,1.47c-0.31,0.57-0.49,1.21-0.53,1.85c-0.02,0.26,0,0.51,0.08,0.76c0.06,0.25,0.21,0.47,0.37,0.67
		c0.16,0.19,0.37,0.35,0.62,0.47c0.23,0.11,0.47,0.17,0.74,0.18c0.47-0.08,0.9-0.31,1.21-0.67c0.31-0.36,0.47-0.82,0.47-1.29
		L437.21,146.3z M433.23,56.18c0-0.46,0.37-1.04,1.21-1.99c-0.23,0.55-0.41,1.12-0.55,1.7c0.39-0.55,0.55-0.84,0.84-1.21
		c0,1.7-0.66,1.99-1.05,1.99c-0.37,0-0.57,0-0.57-0.38L433.23,56.18z M437.37,53.3c-0.68-0.15-1.37-0.24-2.09-0.29
		c-0.66,0.03-1.33,0.12-1.97,0.29c-0.33-0.81-0.51-1.67-0.55-2.54c0-0.95,0.76-1.33,2.52-1.33c1.78,0,2.69,0.38,2.69,1.33
		c-0.02,0.97-0.25,1.93-0.7,2.8L437.37,53.3z M432.34,55c0-0.46,0.49-0.95,1.44-1.42c-0.21,0.41-0.49,0.76-0.86,1.04l0.96-0.58
		c-0.49,1.04-0.96,1.24-1.13,1.24c-0.08,0.06-0.18,0.08-0.29,0.06c-0.08-0.02-0.18-0.07-0.25-0.15L432.34,55z M435.4,85.27
		c-0.51,0-1.01-0.17-1.42-0.47c-0.41-0.31-0.72-0.74-0.86-1.23l-0.94-2.89h0.16l1.05,2.46c0.88,0.38,2.01,0.75,2.01,1.59
		c0-0.84,1.13-1.21,1.89-1.59l1.13-2.46h0.18l-0.92,2.89c-0.12,0.54-0.43,1.03-0.86,1.39c-0.43,0.35-0.96,0.56-1.54,0.58
		L435.4,85.27z M432.84,134.37c0-0.95-0.37-1.42-0.86-1.33v3.03c0.37,0,0.76-0.64,0.76-1.39L432.84,134.37z M436.43,21.41
		c0.02,0.39,0.08,0.78,0.18,1.15c0,0.46-0.78,0.84-1.42,0.84c-0.64,0-1.25-0.38-1.25-0.75c0.21-0.65,0.37-1.32,0.49-1.99
		c0.04-0.15,0.04-0.31,0-0.46c0.27,0.17,0.57,0.27,0.88,0.29c0.25,0,0.76,0,0.84-0.41c-0.21,0.1-0.45,0.15-0.68,0.14
		c-0.23-0.01-0.45-0.07-0.66-0.18c-0.21-0.11-0.39-0.26-0.51-0.45c-0.12-0.19-0.23-0.41-0.25-0.63c-0.55,0.29-1.15,0-1.23-0.38
		c-0.27,0.07-0.53,0.19-0.76,0.38c-0.29-1.04,0-1.21,1.44-1.42c-0.16-0.15-0.27-0.35-0.29-0.58c0-0.55,0.66-0.93,2.17-0.93
		c0.68,0,1.13,0.29,0.92,0.55c-0.21,0.26,0,0.29,0,0.38c0.33,0.12,0.62,0.34,0.8,0.64c0.18,0.29,0.27,0.64,0.25,0.98
		C437.08,19.7,436.43,19.91,436.43,21.41z M435.07,35.5c0.59,0,1.25-0.84,1.25-1.79c0.29,0.95,0.47,1.42,0.94,1.42
		c0.45,0,0.86-0.87,0.86-1.99c0.59,0.85,0.92,1.86,0.94,2.89c0,0.84-0.31,1.04-0.47,1.04c-0.18,0-0.84-0.49-0.96-1.62
		c0,1.33-0.37,1.99-0.84,1.99c-0.47,0-0.57-0.49-0.84-1.33c0,1.13-0.39,1.79-0.88,1.79c-0.49,0-0.76-0.75-0.76-1.79
		c-0.25,0.84-0.53,1.33-0.84,1.33c-0.29,0-0.84-0.58-0.84-1.99c0,1.04-0.57,1.62-0.96,1.62c-0.37,0-0.45-0.29-0.45-1.04
		c0.06-1.02,0.39-2.01,0.92-2.89c0,1.13,0.41,1.99,0.88,1.99c0.45,0,0.76-0.46,0.92-1.42c0.21,0.95,0.76,1.79,1.23,1.79H435.07z
		 M431.13,132.9h0.45c0.96,0,1.6,0.38,1.6,1.79c0.04,0.24,0.02,0.49-0.04,0.72c-0.06,0.24-0.16,0.46-0.31,0.65
		c-0.14,0.19-0.35,0.36-0.55,0.48c-0.21,0.12-0.45,0.2-0.7,0.23h-0.45V132.9z M435.2,87.5c-0.55,0.02-1.11-0.13-1.58-0.42
		c-0.49-0.3-0.86-0.74-1.07-1.25l-1.72-2.89h0.31l1.68,2.54c0.86,0.4,2.17,0.78,2.38,1.44c0.27-0.78,1.52-1.15,2.36-1.44l1.6-2.54
		h0.29l-1.6,2.89c-0.23,0.49-0.59,0.9-1.05,1.2c-0.45,0.3-0.96,0.46-1.52,0.48H435.2z M435.2,31.92c0.76,0,1.25-0.78,1.25-1.7
		c0.29,0.93,0.76,1.33,1.05,1.33s0.92-0.87,0.92-1.82c0,0.87,0.59,1.62,1.23,1.62c0,1.33-0.27,2.08-0.84,2.08
		c-0.59,0-0.47-0.58-0.76-1.62c0,0.95-0.47,1.99-0.92,1.99c-0.47,0-0.59-0.38-0.88-1.42c0,1.13-0.55,1.99-1.13,1.99
		c-0.59,0-0.94-0.87-0.94-1.99c-0.29,1.13-0.49,1.42-0.86,1.42c-0.39,0-0.92-0.95-0.92-1.99c-0.31,0.95-0.39,1.62-0.76,1.62
		c-0.39,0-0.88-0.75-0.88-2.08c0.49,0,1.13-0.75,1.25-1.62c0,0.95,0.47,1.82,0.92,1.82c0.47,0,0.88-0.4,1.15-1.33
		c0.08,0.93,0.55,1.7,1.11,1.7H435.2z M432.75,38.04c1.31,0,1.68,0.49,1.68,2.28v0.75c-0.55,0-0.92-0.55-1.13-1.21
		c0,0.84-0.47,1.21-0.76,1.21s-0.47-0.29-0.47-0.84v-0.75c-0.1,0.27-0.29,0.49-0.51,0.64c-0.25,0.15-0.53,0.22-0.82,0.19
		c0.47-1.79,0.92-2.28,1.99-2.28H432.75z M435.32,89.4c-0.64,0.03-1.25-0.15-1.74-0.51c-0.51-0.36-0.86-0.89-1.03-1.49l-2.17-3.12
		h0.29l2.46,3.12c0.84,0.38,2.07,0.75,2.28,1.33c0.29-0.58,1.42-0.95,2.28-1.33l2.46-3.12h0.27l-2.15,3.32
		c-0.29,0.54-0.72,0.98-1.23,1.3c-0.53,0.32-1.13,0.49-1.74,0.49H435.32z M431.71,40.9c-0.02,0.11,0,0.22,0.02,0.33
		c0.04,0.11,0.08,0.21,0.16,0.29c0.06,0.09,0.16,0.16,0.25,0.21c0.1,0.05,0.21,0.08,0.33,0.1c0.37,0,0.76-0.38,0.96-0.84
		c0.59,0.83,0.86,1.87,0.74,2.89c-0.31-0.08-0.59-0.26-0.8-0.52c-0.21-0.25-0.31-0.57-0.33-0.89c0,0.95-0.49,1.42-0.86,1.42
		c-0.39,0-0.39-0.38-0.39-0.84v-0.87c0,0.49-0.84,1.15-1.42,0.87c0.23-1.1,0.84-1.96,1.29-2.14H431.71z M432.39,98.18l2.44-1.79
		l-0.94-0.75c-0.14,0.2-0.33,0.37-0.53,0.5c-0.23,0.13-0.45,0.21-0.7,0.25c-0.25,0.03-0.51,0.02-0.74-0.04
		c-0.25-0.06-0.47-0.17-0.68-0.32c0.76-0.29,1.44-1.62,2.28-0.84c-0.76-0.87,0.29-1.82,0-2.66c0.21,0.14,0.39,0.31,0.53,0.53
		c0.14,0.21,0.25,0.45,0.29,0.7c0.04,0.25,0.04,0.51-0.02,0.75c-0.06,0.25-0.18,0.48-0.35,0.68l0.96,0.75v-3.99
		c-0.64-0.02-1.27-0.25-1.76-0.65c-0.49-0.41-0.84-0.97-0.98-1.6l-2.54-3.78h0.27l2.91,3.5c0.92,0.38,2.65,0.75,2.65,1.62
		c0-0.87,1.6-1.24,2.65-1.62l2.73-3.5h0.29l-2.56,3.78c-0.16,0.64-0.53,1.2-1.07,1.61c-0.51,0.41-1.17,0.63-1.83,0.64v3.99
		l0.92-0.75c-0.16-0.2-0.27-0.43-0.33-0.68c-0.06-0.25-0.08-0.51-0.04-0.76c0.06-0.25,0.16-0.49,0.31-0.7
		c0.14-0.21,0.33-0.39,0.55-0.51c0,0.84,0.84,1.79,0,2.66c0.84-0.78,1.44,0.55,2.28,0.84c-0.96,0.75-1.81,0.46-2.65-0.38l-0.96,0.75
		l2.56,1.79l-0.76,0.29l-2.09-1.42v2.17h-0.27h-0.29v-2.17l-1.99,1.42L432.39,98.18z M429.9,135.44l-0.29-1.79v1.88L429.9,135.44z
		 M429.9,52.43c0,0.58,0,0.66-0.37,0.75v-1.42c0.04,0.09,0.25,0.09,0.25,0.55L429.9,52.43z M432.18,94.4
		c-1.23,1.33-2.19,1.04-2.91,0c0.76,0,1.7-1.24,2.46-0.58c-0.76-0.58,0.47-1.7,0.47-2.46c0.82,0.95,0.82,1.91-0.14,3.03H432.18z
		 M429.53,53.56c0.66-0.29,0.92-0.55,0.92-1.21c0.02-0.12,0-0.24-0.04-0.35c-0.04-0.11-0.12-0.21-0.21-0.29
		c-0.1-0.08-0.21-0.13-0.33-0.15c-0.12-0.02-0.25-0.01-0.35,0.03h-0.59v1.99L429.53,53.56z M428.86,35.96c0.47,0,1.13-0.46,1.23-1.7
		c0,1.24,0.57,3.32,0.57,4.19c0,0.87-0.39,1.59-0.84,1.59c-0.49-1.13-0.8-2.83-1.09-4.07H428.86z M428.67,137.23l0.47-3.96
		l1.13-0.29l0.76,3.78h-0.76v-0.84l-0.66,0.17v0.87L428.67,137.23z M430.37,50.06v-0.84l0.76-1.24l-1.31,1.04l-0.39,0.58h-0.29
		v-0.87l0.96-0.84l-1.23,0.38l-0.29,0.38h-0.37l0.45-0.75l2.48-0.95l0.37-2.66c0,0,0.27,0,0.47,0c0.21,0,0.47,0,0.57,0L432,46.94
		l1.6,0.95l0.29,0.95h-0.16l-0.59-0.58L432,47.89l-1.05,1.33l-0.47,0.75h-0.29L430.37,50.06z M429.9,29.84c0,1.59,0,2.74,0,3.5
		s-0.55,1.79-1.13,1.79c-0.27-1.44-0.39-2.9-0.39-4.36c0-1.79,0.29-2.17,0.59-2.17c0.29,0,0.8,0.38,0.8,1.24H429.9z M428.02,52.34
		l0.16,0.93h-0.29L428.02,52.34z M430.46,93.19c-0.21,0.2-0.45,0.35-0.72,0.45c-0.27,0.09-0.55,0.12-0.84,0.08
		c-0.27-0.03-0.53-0.14-0.78-0.3c-0.23-0.16-0.43-0.37-0.57-0.61c0.84,0,1.68-0.87,2.56,0c-0.57-0.58,0-1.33,0-1.99l-1.13-3.5h0.16
		l1.64,3.5c0.12,0.18,0.23,0.39,0.29,0.61c0.06,0.22,0.06,0.45,0.02,0.67c-0.04,0.22-0.12,0.44-0.27,0.62
		c-0.12,0.19-0.29,0.35-0.49,0.47H430.46z M429.06,91.86c-0.76,0.29-1.62-0.38-1.62-1.42c0-0.46,0-0.95,0.29-5.4h-0.04v4.16
		c0.88,0.4,1.72,1.04,1.72,1.99c0.08,0.29-0.08,0.49-0.47,0.66H429.06z M427.69,52.05l-0.37,2.25l0.47-0.17v-0.38l0.49-0.2v0.29
		l0.57-0.17l-0.49-1.91L427.69,52.05z M431.38,140.64c1.39,0.01,2.75,0.44,3.88,1.24c1.17-0.79,2.56-1.22,3.98-1.24
		c2.91,0,4.74,1.42,4.74,3.41c0,0.34-0.06,0.68-0.21,0.99c-0.12,0.31-0.33,0.6-0.57,0.84c-0.25,0.24-0.53,0.42-0.86,0.54
		c-0.31,0.12-0.66,0.18-1.01,0.17c-1.05,0-1.89-0.46-1.89-1.42c0-0.14,0.02-0.28,0.06-0.41c0.04-0.13,0.12-0.26,0.21-0.36
		c0.1-0.1,0.23-0.19,0.35-0.25c0.12-0.06,0.27-0.09,0.41-0.1c0.18,0.01,0.37,0.07,0.53,0.17c0.16,0.1,0.31,0.25,0.39,0.42
		c0.1,0.17,0.14,0.37,0.12,0.56c0,0.19-0.08,0.38-0.18,0.54c0.23,0,0.45-0.05,0.68-0.15c0.21-0.09,0.39-0.23,0.55-0.39
		c0.16-0.17,0.29-0.37,0.35-0.58c0.08-0.21,0.12-0.44,0.1-0.67c0-1.53-1.39-2.46-3.49-2.46c-1.23-0.02-2.44,0.3-3.51,0.92
		c1.19,0.97,1.93,2.38,2.09,3.9c0.04,0.38,0,0.77-0.12,1.13c-0.12,0.37-0.33,0.7-0.57,0.99c-0.27,0.29-0.57,0.51-0.92,0.67
		c-0.37,0.16-0.74,0.24-1.13,0.24c-0.39,0-0.78-0.08-1.13-0.24c-0.35-0.16-0.68-0.38-0.92-0.67c-0.27-0.29-0.45-0.62-0.57-0.99
		c-0.12-0.37-0.16-0.75-0.12-1.13c0.14-1.52,0.9-2.93,2.09-3.9c-1.03-0.63-2.19-0.95-3.41-0.92c-2.17,0-3.61,0.92-3.61,2.46
		c0,0.23,0.02,0.46,0.1,0.68c0.08,0.22,0.21,0.41,0.37,0.58c0.16,0.17,0.35,0.3,0.57,0.39c0.21,0.09,0.45,0.14,0.68,0.14
		c-0.1-0.16-0.16-0.34-0.18-0.54c-0.02-0.19,0.02-0.38,0.1-0.56c0.1-0.17,0.23-0.32,0.39-0.43c0.16-0.11,0.35-0.17,0.53-0.18
		c0.76,0,1.05,0.46,1.05,1.13s-0.86,1.42-1.89,1.42c-0.35,0.02-0.7-0.04-1.03-0.16c-0.31-0.12-0.62-0.31-0.86-0.54
		c-0.25-0.24-0.45-0.52-0.59-0.84c-0.12-0.32-0.21-0.66-0.21-1c-0.25-1.88,1.56-3.41,4.57-3.41H431.38z M428.49,137.35
		c-0.88,0.38-1.81,0-1.81-1.82c0-1.3,0.76-2.17,1.7-2.08v0.58c-0.78,0-1.05,0.46-1.05,1.42c0,0.95,0.55,1.42,1.15,1.24V137.35z
		 M426.58,36.46c0.55,0,1.31-0.49,1.39-1.91c0.35,2.94,0.94,5.84,1.81,8.67c0.35,0.79,0.53,1.63,0.59,2.48
		c0,0.15-0.04,0.29-0.1,0.42c-0.06,0.13-0.16,0.24-0.29,0.33c-1.74-3.11-2.97-6.49-3.61-9.99H426.58z M427.44,25.68
		c0.29,0,0.45,0.38,0.45,1.21c0,0.84-0.37,2.28-1.42,2.28c0.08-3.03,0.37-3.5,0.76-3.5H427.44z M426.29,30.22
		c0.76,0,1.31-0.58,1.6-1.7c0,0.95,0,1.7,0,2.46c0,0.75,0,2.08,0,2.66c0.04,0.42-0.08,0.84-0.35,1.17
		c-0.27,0.33-0.66,0.55-1.07,0.62c0-1.24,0-2.2,0-3.12v-2.08H426.29z M428.1,80.33c-0.37,0-0.66,0-1.05,0l-0.76,0.95
		c0.33,1.11,0.47,2.26,0.47,3.41c0,1.7-0.47,3.99-0.47,5.49c0,4.45,1.15,7.37,9.19,10.11c8.14-2.66,9.17-5.58,9.17-10.11
		c0-1.42-0.47-3.78-0.47-5.49c0.06-1.15,0.21-2.29,0.47-3.41l-0.76-0.95c-0.35,0.06-0.68,0.06-1.03,0
		c-2.22-1.36-4.78-2.08-7.38-2.08S430.31,78.97,428.1,80.33z M426.09,53.01l0.39-0.2v1.7l0.57-0.2v-1.68h0.39v-0.46l-1.44,0.46v0.49
		L426.09,53.01z M425.45,53.47c0,0.29,0,0.38-0.29,0.38v-0.66c0.08-0.09,0.08,0.09,0.08,0.29H425.45z M424.78,136.77h0.47v-1.15
		v-0.75v0.75L424.78,136.77z M426.01,54.6l-0.47-0.75c0.08-0.05,0.16-0.11,0.21-0.2c0.04-0.08,0.06-0.17,0.06-0.27
		c0-0.09-0.02-0.18-0.04-0.27c-0.04-0.08-0.1-0.16-0.18-0.22c-0.08-0.06-0.16-0.09-0.25-0.11c-0.1-0.02-0.18-0.01-0.29,0.02
		l-0.64,0.2v2.19l0.55-0.2v-0.75l0.37,0.66L426.01,54.6z M423.91,37.27c0.76,0,1.25-0.75,1.33-2.17c0.45,3.2,1.27,6.34,2.44,9.36
		c0.33,0.72,0.49,1.5,0.49,2.28c0.02,0.16-0.02,0.32-0.08,0.46c-0.06,0.15-0.16,0.27-0.29,0.37c-1.87-3.18-3.16-6.66-3.82-10.28
		L423.91,37.27z M423.91,138.36l0.68-4.07l1.05-0.29l0.55,3.7l-0.55,0.2v-0.78l-0.66,0.2v0.75L423.91,138.36z M425.51,28.11
		c-0.27,1.42-0.55,1.99-1.6,1.99c0.04-2.29,0.72-4.52,1.97-6.44c0.31-0.38,0.59-0.75,0.96-0.75c0.1,0.01,0.18,0.05,0.27,0.12
		c0.06,0.07,0.1,0.16,0.12,0.26c0,0.11-0.02,0.23-0.08,0.33c-0.04,0.1-0.12,0.19-0.23,0.25c-0.8,1.33-1.29,2.82-1.42,4.36V28.11z
		 M423.83,31c0.55,0,1.21-0.38,1.6-1.96c0,1.13-0.29,1.96-0.29,2.54c0,0.58,0,1.99,0,2.54s0,1.91-1.25,2.19
		c-0.27-1.24-0.39-2.51-0.39-3.78c0.21-0.43,0.21-0.9,0.33-1.39V31z M425.8,76.2l-2.56-8.67v8.67H425.8z M422.89,55.2l1.25-0.26
		v-0.38h-0.57v-0.58h0.57v-0.38h-0.57v-0.46h0.57l-1.13,0.29v1.88L422.89,55.2z M421.88,137.06c0-0.07,0-0.13,0.02-0.19
		c0.02-0.06,0.06-0.12,0.1-0.16c0.06-0.05,0.1-0.08,0.16-0.1c0.06-0.02,0.14-0.03,0.21-0.03c0.06,0,0.12,0.01,0.18,0.04
		c0.06,0.02,0.1,0.06,0.14,0.11c0.06,0.05,0.08,0.1,0.1,0.16c0.02,0.06,0.04,0.12,0.04,0.18c0,0.06-0.02,0.13-0.04,0.18
		c-0.02,0.06-0.06,0.11-0.1,0.15c-0.04,0.05-0.08,0.08-0.14,0.1c-0.06,0.02-0.12,0.03-0.18,0.03c-0.06,0-0.12-0.01-0.18-0.03
		c-0.06-0.02-0.12-0.06-0.16-0.1c-0.04-0.04-0.08-0.1-0.1-0.15C421.88,137.19,421.88,137.12,421.88,137.06z M422.17,55.09
		c0,0.26,0,0.38-0.29,0.38v-0.75c0.14,0,0.23,0.09,0.23,0.49L422.17,55.09z M422.17,54.13c0,0.04,0,0.08-0.02,0.12
		c0,0.04-0.02,0.07-0.06,0.1c-0.02,0.03-0.06,0.05-0.1,0.06c-0.02,0.01-0.06,0.02-0.1,0.01v-0.58c0.14,0,0.23,0.09,0.23,0.29H422.17
		z M421.88,37.58c0.76,0,1.33-0.58,1.33-2.08c0.41,3.66,1.39,7.23,2.91,10.6c0.33,0.81,0.51,1.67,0.57,2.54
		c0.02,0.16-0.02,0.32-0.1,0.46c-0.08,0.14-0.21,0.24-0.37,0.29C424.04,45.77,422.56,41.76,421.88,37.58z M421.49,31.26
		c0.59,0,1.23-0.38,1.6-1.79c0,0.93,0,1.79,0,2.63v2.46c0,0.87,0,1.91-1.21,2.08c-0.31-1.77-0.49-3.57-0.53-5.37H421.49z
		 M423.3,28.22c-0.21,1.42-0.84,2.08-1.81,2.08c0.12-1.92,0.57-3.81,1.35-5.57c0.84-1.79,2.26-2.89,2.89-2.89
		c0.29,0,0.47,0,0.47,0.38c0,0.38-0.37,0.41-0.84,0.87c-1.25,1.45-2.01,3.24-2.22,5.14H423.3z M421.33,53.67v1.97h0.76
		c0.45,0,0.76-0.29,0.76-0.66c0-0.38-0.31-0.38-0.51-0.38c0.12-0.01,0.25-0.06,0.35-0.14c0.08-0.08,0.14-0.2,0.16-0.32
		c0-0.38-0.31-0.49-0.76-0.49L421.33,53.67z M420.37,55.55h0.57v-1.99h-0.57V55.55z M420.2,42.32c0.53-0.29,1.13-0.87,1.13-2.57
		c0.53,2.58,1.29,5.12,2.26,7.57c0.55,1.62,1.23,2.57,1.23,3.03c0,0.46,0,0.46-0.39,0.58c-1.99-2.57-3.47-5.49-4.39-8.61H420.2z
		 M420.2,76.34h2.54v-8.66L420.2,76.34z M419.44,139.31c0.49,0,0.94,0,0.94-0.38c0-0.38-1.05-0.84-1.05-1.97
		c0-0.18,0.04-0.36,0.12-0.52c0.08-0.16,0.21-0.3,0.37-0.4c0.14-0.1,0.31-0.17,0.49-0.19c0.18-0.02,0.37,0,0.53,0.07v0.64
		c-0.47,0-0.92,0-0.92,0.49c0,0.49,1.13,0.75,1.13,1.88c0,0.19-0.06,0.38-0.16,0.54c-0.08,0.17-0.21,0.31-0.37,0.42
		s-0.33,0.19-0.53,0.22c-0.18,0.03-0.37,0.02-0.55-0.03V139.31z M444.61,19.7c2.91,0,6.83,2.89,7.3,10.89
		c-1.13,0-1.42-0.87-1.6-2.17c-0.76-5.11-3.43-7.57-5.31-7.57c-3.79,0-0.76,5.95-4.64,6.79c0,0.95-0.29,2.19-0.74,2.19
		c-0.47,0-0.88-1.04-1.15-1.99c0,1.33-0.37,2.46-0.86,2.46c-0.49,0-0.76-1.04-0.94-2.08c0,1.24-0.57,2.46-1.25,2.46
		c-0.66,0-1.01-1.21-1.01-2.46c-0.29,0.95-0.59,2.08-0.96,2.08c-0.37,0-0.84-1.04-0.84-2.46c-0.29,0.84-0.49,1.99-1.05,1.99
		s-0.76-1.24-0.76-2.19c-3.9-0.84-0.84-6.79-4.66-6.79c-1.97,0-4.62,2.45-5.37,7.57c0,1.3-0.47,2.17-1.64,2.17
		c0.51-8.03,4.29-10.89,7.3-10.89c4.45,0,2.19,5.6,4.29,5.6c0.84,0,1.6-0.95,2.26-2.19c-0.04,0.25-0.04,0.5,0,0.75
		c0,0.95,0.94,1.62,2.54,1.62c1.6,0,2.67-0.58,2.67-1.62c0.06-0.25,0.06-0.5,0-0.75c0.76,1.24,1.33,2.19,2.28,2.19
		c1.54,0-0.66-5.6,3.9-5.6H444.61z M418.97,53.56v1.79c0.33,0.15,0.68,0.24,1.05,0.29V55.2h-0.47v-1.59L418.97,53.56z M418.97,31.72
		c0.57,0,1.33-0.38,1.72-1.88c0,0.92,0,1.88,0,2.74c0,1.77,0.12,3.53,0.37,5.29c0.04,0.4,0.04,0.81,0,1.21
		c0,1.33-0.47,1.99-1.13,2.19c-0.74-2.56-1.11-5.2-1.15-7.86c-0.08-0.58-0.08-1.33,0-1.7H418.97z M417.66,139.51l0.55-0.29
		l-0.29-0.95v-0.93v0.95L417.66,139.51z M416.8,141.3l0.49-4.25l0.92-0.38l0.84,3.58l-0.55,0.29v-0.75l-0.76,0.29v0.84L416.8,141.3z
		 M417.66,43.24c-0.27-0.09-0.49-0.27-0.66-0.51c-0.14-0.23-0.23-0.51-0.21-0.79c0.06-0.83,0.43-1.61,1.05-2.19
		c0,0.95,0.45,1.62,0.45,2.28c0.04,0.27-0.02,0.53-0.18,0.75c-0.14,0.22-0.37,0.39-0.62,0.46H417.66z M429.76,50.81
		c1.42,0,2.09,0.87,2.26,2.89c-1.76,0-7.18,2.89-10.87,2.89c-2.73,0-4.35-0.95-4.62-4.65c1.25,0.83,2.75,1.23,4.25,1.16
		c3.22-0.09,7.12-2.28,8.8-2.28H429.76z M421.62,49.22c-0.08,0.74-0.45,1.42-1.05,1.89c-0.57,0.47-1.31,0.71-2.07,0.65
		c-0.49,0.01-0.98-0.15-1.35-0.46c-0.39-0.31-0.66-0.75-0.74-1.24c0.21,0.2,0.59,0,1.81,0c0.47,0,1.13,0,1.33,0.58v-0.38
		c0-1.24,1.7-1.62,1.81-2.28c0.12,0.4,0.16,0.83,0.08,1.24H421.62z M417.66,45.24c-0.41,0.02-0.82-0.11-1.13-0.38
		c-0.33-0.26-0.53-0.63-0.57-1.04c-0.06-0.19-0.06-0.39,0-0.58c0.49,0.58,1.62,0.4,1.7,1.62c0-1.21,1.31-1.42,1.6-1.7
		c0.04,0.25,0.02,0.52-0.04,0.77c-0.06,0.25-0.18,0.48-0.37,0.68c-0.16,0.2-0.37,0.36-0.62,0.47c-0.23,0.11-0.49,0.17-0.74,0.17
		H417.66z M420.57,47.32c0,1.33-1.25,2.08-2.91,2.08c-1.66,0-1.89-0.46-2.09-1.96c0.76,0.75,2.48,0.26,2.65,1.3
		c0-1.21,1.72-1.3,2.09-2.08c0.12,0.12,0.12,0.38,0.12,0.66H420.57z M419.81,45.32c0,0.27-0.06,0.54-0.18,0.79
		c-0.1,0.25-0.27,0.47-0.47,0.66c-0.21,0.18-0.45,0.33-0.72,0.42c-0.25,0.09-0.53,0.13-0.8,0.12c-1.15,0-1.81-0.75-2.01-1.99
		c0.57,0.49,2.01,0,2.17,1.07c0-0.95,1.33-0.95,1.81-1.7c0.06,0.1,0.08,0.2,0.1,0.31c0,0.11,0,0.22-0.04,0.32H419.81z
		 M415.15,137.75l0.59-0.29v3.41l0.74-0.38v0.66l-1.33,0.58V137.75z M413.19,138.62v2.89c0,0.29,0,0.38,0.27,0.38
		c0.25,0,0.49-0.26,0.49-0.75v-2.89l0.76-0.29v2.89c0,1.24-0.76,1.79-1.35,1.79c-0.1,0-0.21-0.03-0.31-0.07
		c-0.08-0.04-0.16-0.11-0.25-0.18c-0.06-0.08-0.12-0.17-0.16-0.27c-0.02-0.1-0.04-0.21-0.02-0.31v-2.89L413.19,138.62z
		 M412.22,67.59v8.67h2.56L412.22,67.59z M411.46,141.83v-0.84v-0.95l-0.29,1.99L411.46,141.83z M424.78,110.08
		c-0.55,0.35-1.21,0.51-1.89,0.46c-1.89,0-2.89-1.04-2.89-3.49s0-2.89,0.29-7.19h-3.79c0.1,2.06,0.02,4.12-0.29,6.15
		c-0.25,1.91-1.23,3.64-2.75,4.82l-1.39-1.53c0.64-0.35,1.19-0.85,1.6-1.46c0.41-0.61,0.66-1.3,0.74-2.03
		c0.27-1.97,0.35-3.96,0.31-5.95c-2.09,0-2.91,0.95-2.91,2.74l-1.89-0.46c0.37-3.03,1.99-3.99,4.82-3.99h9.87v1.7h-2.71
		c-0.18,4.45-0.18,4.91-0.18,6.62c0,1.7,0.76,2.17,1.8,2.17c0.45,0.02,0.9-0.07,1.31-0.26L424.78,110.08z M409.84,144.19l0.55-4.16
		l1.05-0.46l0.57,3.78l-0.57,0.29v-0.87l-0.76,0.29v0.95L409.84,144.19z M411.36,76.4v-8.66l-2.48,8.66H411.36z M408.04,142.84
		c0-0.06,0-0.13,0.02-0.18c0.02-0.06,0.06-0.11,0.1-0.15c0.04-0.05,0.1-0.08,0.16-0.1c0.06-0.02,0.12-0.03,0.18-0.03
		c0.06,0,0.12,0.01,0.18,0.03c0.06,0.02,0.1,0.06,0.16,0.1c0.04,0.04,0.08,0.1,0.1,0.15c0.02,0.06,0.04,0.12,0.04,0.18
		c0,0.07-0.02,0.13-0.04,0.19s-0.06,0.12-0.1,0.16c-0.04,0.05-0.1,0.08-0.16,0.11c-0.06,0.02-0.12,0.03-0.18,0.03
		c-0.08,0.01-0.16,0-0.25-0.03c-0.06-0.03-0.12-0.08-0.18-0.14c-0.04-0.06-0.08-0.13-0.08-0.21c-0.02-0.08-0.02-0.16,0.02-0.23
		L408.04,142.84z M417.31,67.31c-0.31,0-0.62-0.11-0.88-0.29c-0.25-0.19-0.45-0.45-0.53-0.75c-1.19,0.02-2.36,0.18-3.49,0.46
		l3.1,9.82h0.88c0,1.24-1.44,2.28-4.66,2.28c-3.22,0-4.37-1.13-4.37-2.28h0.76l2.91-9.45l-0.55,0.2l-0.49-1.24
		c1.89-0.58,3.84-0.93,5.81-1.04c0.14-0.27,0.35-0.5,0.59-0.67c0.25-0.17,0.53-0.26,0.84-0.28c0.31,0,0.59,0.09,0.86,0.26
		c0.25,0.17,0.45,0.41,0.55,0.69c1.99,0.09,3.94,0.45,5.83,1.04l-0.39,1.24l-0.57-0.2l2.91,9.45h0.76c0,1.24-1.31,2.28-4.37,2.28
		c-3.06,0-4.62-1.13-4.62-2.28h0.84l3.14-9.82c-1.15-0.3-2.34-0.45-3.53-0.46c-0.12,0.25-0.31,0.47-0.55,0.64s-0.51,0.26-0.8,0.29
		L417.31,67.31z M406.44,142.84c0-0.07,0-0.15-0.02-0.22c-0.04-0.07-0.08-0.13-0.14-0.18c-0.06-0.05-0.12-0.08-0.21-0.09
		c-0.06-0.01-0.14,0-0.21,0.02v1.21c0.18-0.05,0.33-0.16,0.43-0.33c0.1-0.16,0.14-0.35,0.12-0.54L406.44,142.84z M405.31,145.87
		v-4.01h0.45c0.84-0.29,1.35,0.17,1.35,0.75c-0.02,0.22-0.08,0.43-0.18,0.63c-0.08,0.19-0.23,0.37-0.41,0.5l1.05,1.33l-0.76,0.29
		l-0.57-0.87v-0.46h-0.29v1.62L405.31,145.87z M406.91,48.59c-0.47-8.52,3.49-10.02,5.03-15.51c-0.96,5.78-4.45,7.28-3.98,15.39
		c6.13-10.19,6.13-15.68,5.58-19.29c1.6,3.61,0.84,9.85-4.66,19.96c0.78-0.25,1.64-0.22,2.4,0.1c0.78,0.31,1.39,0.88,1.78,1.61
		c-0.55-0.44-1.21-0.71-1.93-0.79c-0.7-0.08-1.42,0.03-2.05,0.33c0.94,0.11,1.85,0.43,2.63,0.93c0.8,0.5,1.5,1.17,1.99,1.96
		c0.49-0.62,0.72-1.39,0.68-2.17c0-1.59-1.13-2.89-3.32-3.29c3.2-3.76,4.98-8.51,5.05-13.43c0-6.82-3.53-9.73-6.73-9.73
		c-0.51-0.06-1.05-0.01-1.56,0.15c-0.49,0.16-0.96,0.41-1.35,0.76c-0.39,0.35-0.72,0.77-0.92,1.25c-0.23,0.48-0.35,0.99-0.35,1.52
		c-0.02,0.35,0.02,0.7,0.14,1.03c0.12,0.33,0.31,0.63,0.53,0.89c0.25,0.26,0.53,0.46,0.86,0.6c0.33,0.14,0.68,0.22,1.03,0.22
		c0.76,0.09,1.54-0.1,2.17-0.55c-1.31,0-1.97-0.66-1.97-1.44c-0.02-0.19,0-0.38,0.08-0.56c0.06-0.18,0.16-0.34,0.31-0.47
		c0.12-0.13,0.29-0.24,0.47-0.3c0.18-0.07,0.37-0.09,0.55-0.08c0.23,0.01,0.45,0.07,0.66,0.16c0.21,0.1,0.39,0.24,0.53,0.41
		c0.14,0.17,0.27,0.37,0.33,0.58c0.08,0.22,0.1,0.44,0.08,0.67c0,4.33-5.97,8.03-5.97,13.69c0.25,1.88,0.88,3.69,1.87,5.31
		L406.91,48.59z M415.34,51.3c-0.08,1.41-0.7,2.73-1.72,3.7c-0.49-1.15-1.31-2.14-2.34-2.87c-1.01-0.73-2.22-1.18-3.47-1.29
		c-1.07-0.95-1.93-2.12-2.5-3.42c-0.57-1.31-0.84-2.72-0.82-4.14c0-5.2,3.77-7.66,5.58-11.73c-0.59,0.34-1.29,0.51-1.97,0.49
		c-0.47,0.01-0.92-0.08-1.35-0.25c-0.43-0.17-0.82-0.43-1.15-0.75c-0.33-0.33-0.59-0.72-0.76-1.14c-0.18-0.43-0.27-0.89-0.27-1.35
		c0.02-0.64,0.16-1.27,0.43-1.85c0.29-0.58,0.68-1.1,1.15-1.53c0.47-0.43,1.05-0.75,1.64-0.96c0.62-0.21,1.25-0.29,1.91-0.23
		c3.61,0,7.59,3.12,7.59,10.6c0.06,4.79-1.58,9.45-4.66,13.14c0.78,0.19,1.46,0.64,1.95,1.27c0.47,0.63,0.74,1.4,0.72,2.19
		L415.34,51.3z M403.3,142.46c0.57,0,1.13-0.29,1.62-0.38v0.58h-0.86v1.04l0.76-0.29v0.58h-0.76v1.24c0.27-0.12,0.57-0.22,0.86-0.29
		v0.55l-1.62,0.4V142.46z M405.39,134.52c-0.7,0.02-1.37,0.19-2.01,0.5c-0.62,0.31-1.17,0.75-1.6,1.29c1.29,0.93,2.79,1.51,4.37,1.7
		c0.21,0.02,0.41-0.01,0.62-0.08c0.21-0.07,0.39-0.19,0.53-0.35c0.14-0.15,0.25-0.34,0.31-0.54c0.06-0.2,0.08-0.41,0.04-0.62
		c-0.02-1.36-0.98-2.02-2.28-2.02L405.39,134.52z M401.7,143.33h-0.57v-0.58c0.68,0,1.35-0.1,1.99-0.29v0.66h-0.66v3.21h-0.76
		V143.33z M408.24,125.36c4.16,0,9.54,2.46,14.36,2.46c-4.16-1.24-9.83-4.45-13.99-4.45c-3.06,0-7.59,1.79-7.59,5.78
		c0,0.2,0,0.58,0,0.75c0-1.42,1.15-2.08,2.69-2.08c2.65,0,6.42,3.7,11.43,3.7c2.26-0.02,4.47-0.57,6.46-1.62
		c-4.66,0.56-9.35-0.22-13.56-2.25c2.73,0.95,5.62,1.43,8.51,1.42c0.76,0,4.37,0,5.05-0.2c-7.4-0.46-11.84-3.67-17.25-2.89
		c1.25-0.41,2.54-0.66,3.86-0.72L408.24,125.36z M425.08,90.35c0-0.7,0.06-1.39,0.21-2.08h-20.1c0,1.82-1.23,3.12-4.33,3.41
		c0.37,16.64,5.95,24.41,12.59,28.19c6.63,3.78,14.52,5,21.19,8.32v-27.03c-8.27-2.86-9.6-6.18-9.6-10.92L425.08,90.35z
		 M408.61,122.5c5,0,9.54,3.12,17.46,5.49c-2.93,2.67-6.73,4.22-10.71,4.36c-6.07,0-9.95-4.36-12.29-3.7
		c0.16,0.02,0.33,0.07,0.47,0.15c0.14,0.08,0.29,0.19,0.39,0.32c0.1,0.13,0.18,0.28,0.23,0.45c0.04,0.16,0.06,0.33,0.04,0.5
		c0,0.95-0.76,1.42-1.81,1.42c-0.31,0-0.64-0.06-0.92-0.19c-0.29-0.13-0.55-0.31-0.76-0.54c-0.21-0.23-0.37-0.5-0.47-0.8
		c-0.1-0.3-0.14-0.61-0.12-0.92c-0.06-3.52,3.65-6.64,8.47-6.64L408.61,122.5z M400.86,146.53h-0.59l-0.45-1.62l-0.29-1.04
		l0.29,1.42v1.13h-0.59v-3.5h0.59l0.45,1.42l0.31,1.04l-0.31-1.42v-1.04h0.59V146.53z M405.1,87.35h20.35
		c0.14-0.88,0.25-1.77,0.29-2.66c0.04-1.22-0.16-2.43-0.57-3.58l1.42-1.82c0.53,0.06,1.07,0.06,1.6,0c2.4,0.06,4.76-0.64,6.73-1.99
		V62.37l-4.16-5.78c-3.1,1.52-6.5,2.29-9.95,2.25c-5.48-0.19-10.69-2.45-14.54-6.33l-1.5,0.75c0.1,0.7,0.04,1.4-0.16,2.07
		c-0.23,0.67-0.57,1.28-1.07,1.8c-0.51,0.52-1.17,0.91-1.87,1.12c-0.72,0.22-1.48,0.26-2.19,0.12l-0.76,1.42
		c2.36,3.31,3.69,7.22,3.86,11.27c0,3.87-1.42,9.53-1.42,12.77c2.32,0.26,3.84,1.42,3.92,3.41L405.1,87.35z M397.8,142.46l0.78,0.2
		v3.5c-0.27-0.06-0.53-0.16-0.78-0.29V142.46z M469.18,71.46c0,5.08,1.64,8.23,1.64,13.43c-3.32,0-4.29,0.93-4.29,2.89
		c0,1.97,1.33,2.89,4.37,2.89c-0.49,18.34-5.83,25.62-13.17,29.87c-6.44,3.5-14.54,4.82-22.42,9.07
		c-8.06-4.25-16.02-5.46-22.46-9.07c-7.3-4.25-12.59-11.55-13.05-29.87c3.1,0,4.35-1.04,4.35-2.89c0-1.85-0.94-2.89-4.27-2.89
		c0-5.2,1.6-8.35,1.6-13.43c-0.06-4.11-1.46-8.08-3.96-11.35l1.31-2.54c0.68,0.22,1.42,0.25,2.11,0.1c0.7-0.15,1.33-0.49,1.87-0.97
		c0.45-0.51,0.78-1.12,0.9-1.79c0.14-0.67,0.08-1.36-0.14-2l2.65-1.42c3.79,3.99,9.03,6.34,14.54,6.53
		c3.59,0.01,7.12-0.91,10.24-2.66l4.45,6.15l4.45-6.15c3.12,1.75,6.65,2.67,10.24,2.66c5.5-0.23,10.71-2.57,14.54-6.53l2.65,1.42
		c-0.25,0.64-0.29,1.33-0.14,2c0.12,0.66,0.43,1.28,0.88,1.79c0.53,0.49,1.17,0.83,1.89,0.99c0.7,0.15,1.42,0.11,2.11-0.12
		l1.29,2.54c-2.58,3.19-4.06,7.14-4.21,11.24L469.18,71.46z M395.91,137.9c0,1.5,2.26,2.37,4.45,2.37c2.28-0.07,4.51-0.56,6.63-1.44
		c-0.84,0.15-1.7,0.12-2.52-0.07c-0.84-0.19-1.62-0.55-2.3-1.05c-1.17-0.77-2.5-1.25-3.88-1.42c-1.54-0.2-2.42,0.69-2.42,1.44
		L395.91,137.9z M413.35,137.15c-3.94,2.14-8.29,3.48-12.76,3.96c-0.86,0.11-1.72,0.04-2.54-0.22c-0.82-0.26-1.56-0.7-2.19-1.28
		v4.82c0,2.46,1.89,3.96,5.5,3.96s7.38-1.62,13.15-4.16c7.75-3.5,13.64-5.78,20.92-5.78c7.3,0,13.15,2.46,20.92,5.78
		c4.08,2.21,8.55,3.62,13.17,4.16c3.57,0,5.5-1.62,5.5-3.96v-4.82c-0.64,0.57-1.39,1-2.22,1.26c-0.82,0.26-1.68,0.34-2.52,0.25
		c-4.49-0.47-8.84-1.82-12.8-3.96c-6.91-3.37-14.38-5.46-22.05-6.15c-6.4-0.29-15.96,3.12-22.28,5.98L413.35,137.15z M414.87,145.09
		c-5.8,2.54-9.74,4.25-13.52,4.25c-4.29,0-6.46-1.99-6.46-5.03v-5.78c0-1.99,1.44-3.23,3.82-3.23c0.84,0.04,1.66,0.21,2.44,0.49
		c0.53-0.66,1.21-1.2,1.99-1.58c0.76-0.38,1.6-0.59,2.46-0.61c2.01,0,3.3,0.95,3.3,2.66c0.04,0.47-0.06,0.94-0.29,1.34
		c-0.23,0.41-0.59,0.73-1.01,0.94c1.97-0.87,3.41-1.53,5.58-2.45c5.8-2.66,15.53-6.27,22.42-6.27s16.57,3.7,22.44,6.27
		c2.19,0.92,3.59,1.59,5.58,2.45c-0.41-0.21-0.76-0.54-1.01-0.94c-0.25-0.4-0.35-0.87-0.33-1.34c0-1.7,1.33-2.66,3.32-2.66
		c0.86,0.02,1.7,0.22,2.46,0.6c0.78,0.38,1.46,0.92,1.99,1.59c0.78-0.35,1.62-0.52,2.46-0.49c2.36,0,3.79,1.24,3.79,3.23v5.78
		c0,3.03-2.19,5.03-6.44,5.03c-3.79,0-7.75-1.7-13.54-4.25c-7.38-3.32-13.27-5.78-20.66-5.78c-7.38,0-13.58,2.37-20.96,5.6
		L414.87,145.09z M398.97,109.71c-2.63,3.9-4.33,8.33-5,12.97c-0.18-4.73,1.19-9.39,3.96-13.26c-1.81,1.22-3.28,2.85-4.33,4.74
		c-1.05,1.89-1.64,4-1.72,6.15c0,6.04,4.14,8.49,6.54,6.9c-1.64,0.46-2.91-0.58-2.91-2.57c0-2.46,2.44-4.42,2.44-11.15
		c0,5.49,2.17,7.39,5.03,7.39c1.19-0.02,2.34-0.46,3.24-1.24c-2.91-1.13-4.84-4.36-5.83-10.02c-0.41,1.72-0.37,3.51,0.06,5.22
		c0.45,1.71,1.31,3.29,2.5,4.6c-2.89-0.93-4.51-5.63-4.12-9.91L398.97,109.71z M395.71,69.64c-0.18-2.68-0.62-5.34-1.25-7.94
		c-0.41,1.9-0.59,3.84-0.55,5.78c0.12,3.58,0.43,7.14,0.92,10.69c-1.13-3.46-1.78-7.05-1.97-10.69c0.02-2.03,0.21-4.06,0.55-6.07
		c-1.66,2.17-2.52,4.84-2.44,7.57c0,4.45,2.56,8.67,2.44,13.06c1.64-1.34,2.97-3.03,3.88-4.94c0.9-1.91,1.37-4,1.35-6.12
		c-0.25-3.31-1.44-6.49-3.43-9.16c0.62,2.61,1.03,5.27,1.25,7.94c0.06,1.83-0.06,3.66-0.39,5.46
		C395.87,73.14,395.71,71.23,395.71,69.64z M407.63,119.18c-0.47,0.85-1.17,1.54-2.03,2.01c-0.86,0.47-1.83,0.69-2.79,0.64
		c-0.98,0.03-1.93-0.2-2.79-0.67c-0.84-0.47-1.56-1.15-2.05-1.99c-0.37,2.08-1.7,4.16-1.7,5.37c-0.04,0.17-0.02,0.34,0.02,0.51
		c0.06,0.16,0.14,0.32,0.27,0.44c0.1-0.34,0.31-0.63,0.59-0.82c0.31-0.19,0.66-0.27,1.01-0.22c0.45,0.01,0.88,0.19,1.21,0.51
		c0.31,0.32,0.49,0.75,0.51,1.2c-0.02,0.35-0.12,0.7-0.29,1.02c-0.16,0.32-0.37,0.6-0.66,0.83c-0.27,0.23-0.57,0.4-0.92,0.51
		c-0.33,0.1-0.7,0.14-1.05,0.1c-2.91,0-6.05-2.63-6.05-8.23c0-4.82,2.52-9.07,9.46-13.98c1.48,5.03,1.6,11.27,7.18,12.68
		L407.63,119.18z M395.71,59.33c0,2.89,3.96,5.29,3.96,11.55c-0.02,2.62-0.72,5.19-2.05,7.45c-1.31,2.26-3.22,4.14-5.52,5.43
		c0.27-0.63,0.41-1.31,0.37-1.99c0-4.27-2.46-8.66-2.46-12.97c-0.12-2.08,0.37-4.14,1.39-5.95c1.05-1.81,2.56-3.28,4.43-4.25
		L395.71,59.33z M396.18,96.02c-3.77,3.98-6.19,9.03-6.93,14.44c-0.04-5.66,2.17-11.1,6.17-15.13c-2.42,1.13-4.45,2.91-5.87,5.14
		c-1.44,2.23-2.19,4.81-2.19,7.46c-0.06,2.29,0.68,4.52,2.09,6.33c1.17-2.32,2.63-4.49,4.33-6.44c2.4-2.42,3.71-5.68,3.69-9.07
		c0-0.75,0-1.13,0-2.54c-0.98,4.38-3.04,8.47-5.95,11.9c1.97-3.84,3.51-7.89,4.55-12.07H396.18z M398.44,98.67
		c0.04,1.81-0.29,3.6-0.98,5.27c-0.68,1.67-1.7,3.19-2.99,4.46c-2.07,2.12-3.63,4.66-4.57,7.45c-1.21-0.89-2.17-2.08-2.79-3.45
		c-0.62-1.37-0.86-2.88-0.72-4.38c-0.06-1.92,0.29-3.83,1.03-5.61c0.74-1.78,1.85-3.38,3.24-4.7c2.56-2.46,5.29-3.32,6.63-5.57
		c0.76,2.09,1.13,4.31,1.09,6.53H398.44z M397.6,54.97c-1.54-0.15-3.1,0.18-4.45,0.95c-2.65,1.7-5.03,3.32-6.63,1.24
		c1.81,1.33,3.49-0.29,6.34-2.08c1.46-0.74,3.1-1.07,4.74-0.95c-2.07-1.07-3.96-2.47-5.58-4.16c1.89,1.13,3.86,2.46,5.95,3.58
		c-1.95-2.59-4.39-4.77-7.2-6.41c3.1,1.26,5.83,3.31,7.88,5.95c-0.74-2.78-1.07-5.65-0.96-8.52c0.39,2.82,0.98,5.6,1.81,8.32
		c0.78-4.15,0.57-8.42-0.57-12.48c1.89,2.89,2.09,7.19,1.42,12.68c1.19-2.01,1.85-4.29,1.89-6.62c0-4.45-1.68-7.39-4.35-8.43
		c-0.21-0.1-0.43-0.16-0.64-0.17c0.1,0.46,0.16,0.94,0.16,1.42c0,2.28-1.68,3.7-1.68,7.19c-0.02,0.85,0.08,1.71,0.27,2.54
		c-0.64-0.98-1.5-1.79-2.5-2.36c-1.03-0.57-2.15-0.89-3.32-0.93c-0.55,0.01-1.09,0.07-1.62,0.17c-0.04,1.57,0.45,3.11,1.37,4.39
		c0.92,1.28,2.24,2.23,3.73,2.71c-3.9,0.55-3.9,2.89-5.66,2.89c-0.18,0.01-0.35-0.02-0.51-0.08c-0.16-0.06-0.33-0.16-0.45-0.28
		c-0.12-0.12-0.23-0.27-0.29-0.43c-0.06-0.16-0.1-0.33-0.08-0.51c-0.02-0.15,0.02-0.3,0.08-0.44c0.06-0.14,0.16-0.26,0.27-0.36
		c0.12-0.1,0.27-0.17,0.41-0.21c0.14-0.04,0.31-0.05,0.45-0.02c-0.25-0.05-0.51-0.05-0.76,0c-0.76,0.07-1.48,0.43-1.97,1.02
		c-0.49,0.58-0.74,1.34-0.68,2.1c0,0.44,0.1,0.87,0.29,1.28c0.18,0.4,0.45,0.76,0.78,1.05c0.33,0.29,0.72,0.51,1.15,0.65
		c0.43,0.14,0.86,0.18,1.31,0.14c3.36,0,6.4-3.41,9.54-4.82H397.6z M386.6,84.09c-0.02-0.21,0-0.43,0.08-0.63
		c0.06-0.2,0.16-0.39,0.31-0.55c0.14-0.16,0.31-0.29,0.51-0.38c0.18-0.09,0.39-0.14,0.62-0.15c0.35-0.03,0.68,0.08,0.96,0.29
		c-0.14-0.2-0.33-0.36-0.53-0.46c-0.23-0.1-0.45-0.14-0.7-0.12c-2.01,0-3.69,2.08-3.69,4.91c-0.02,0.79,0.12,1.57,0.41,2.3
		c0.29,0.73,0.72,1.39,1.27,1.95c0.57,0.56,1.23,0.99,1.97,1.29c0.74,0.29,1.52,0.43,2.32,0.41c4.35,0,6.71-3.38,7.18-7.66
		c-0.53,1.47-1.5,2.74-2.75,3.67c-1.27,0.93-2.79,1.46-4.35,1.53c-1.01-0.02-1.97-0.37-2.75-0.98c-0.8-0.61-1.35-1.46-1.62-2.43
		c0.39,0.8,1.03,1.46,1.81,1.91c0.78,0.44,1.66,0.64,2.56,0.58c1.48-0.14,2.89-0.73,4.04-1.7c1.13-0.97,1.93-2.26,2.3-3.7
		c-0.8,0.89-1.78,1.6-2.87,2.1c-1.09,0.5-2.28,0.77-3.47,0.79C387.94,86.97,386.6,85.7,386.6,84.09z M383.69,56.56
		c-0.02-0.49,0.06-0.98,0.23-1.44c0.16-0.46,0.43-0.89,0.76-1.25c0.35-0.36,0.76-0.65,1.19-0.85c0.45-0.21,0.94-0.32,1.44-0.33
		c1.44,0,2.17,0.75,2.17,1.79c0.62-0.71,1.39-1.27,2.28-1.62c-1.33-0.73-2.42-1.84-3.12-3.19c-0.7-1.35-0.96-2.87-0.78-4.38
		c0.82-0.27,1.68-0.4,2.56-0.38c1.6,0.03,3.16,0.56,4.45,1.53c0-3.78,1.81-4.74,1.81-7.57c0-0.7-0.1-1.4-0.31-2.08
		c3.24,0,6.93,3.41,6.93,9.56c-0.06,3.15-1.15,6.19-3.12,8.66c-3.9,0-7.3,5.49-12.04,5.49c-0.55,0.07-1.13,0.03-1.68-0.14
		c-0.55-0.16-1.05-0.44-1.48-0.81c-0.43-0.37-0.78-0.83-1.03-1.34c-0.25-0.51-0.37-1.07-0.37-1.64L383.69,56.56z M398.23,84.46
		c0,6.33-3.86,9.45-8.02,9.45c-0.92,0.03-1.85-0.13-2.69-0.46c-0.86-0.33-1.64-0.84-2.3-1.49c-0.64-0.65-1.15-1.42-1.48-2.27
		c-0.35-0.85-0.49-1.76-0.45-2.68c0-3.29,2.05-5.78,4.62-5.78c1.42,0,2.38,0.92,2.38,2.08c0.02,0.22-0.02,0.44-0.1,0.64
		c-0.08,0.21-0.21,0.39-0.35,0.55c-0.14,0.16-0.33,0.29-0.53,0.37c-0.21,0.09-0.41,0.14-0.64,0.14c-0.47,0-0.76,0-0.84-0.29
		c0.37,1.04,1.89,1.21,2.46,1.21c1.64-0.1,3.22-0.65,4.57-1.6c1.33-0.95,2.36-2.26,2.99-3.77c0.23,1.29,0.31,2.62,0.21,3.93
		L398.23,84.46z"/>
</g>
<g>
	<path class="st1" d="M106.3,85.09c1.99-11.51,3.95-22.76,5.73-34.28c0.29-6.69,9.82-8.61,12.63-2.59
		c2.78,7.95,4.88,16.16,7.33,24.22c0.15,0.43,0.7-0.13,0.79-0.29c1.6-5.29,3.13-10.6,4.78-15.88c1.12-3.19,1.51-6.66,3.44-9.52
		c2.76-3.15,8.89-2.77,10.76,1.14c1.29,2.99,1.42,6.43,2.06,9.61c1.42,8.94,2.97,17.87,4.49,26.79c0.72,5.8-8.56,7.71-9.45,1.5
		c-1.35-8.22-2.42-16.49-3.8-24.7c-1.19,0.89-1.18,2.39-1.59,3.65c-0.54,1.5-0.94,3.06-1.39,4.6c-1.76,6.05-3.43,12.14-5.44,18.11
		c-1.36,3.24-6.66,3.01-8.4,0.17c-0.42-0.68-0.68-1.48-0.95-2.25c-2.62-8.01-4.53-16.48-7.35-24.31c-1.1,1.5-0.74,3.48-1.12,5.23
		c-0.62,3.48-1.07,6.98-1.5,10.49c-0.97,3.76-0.15,12.21-5.08,12.79C109.05,90.34,106.87,87.85,106.3,85.09z"/>
	<path class="st2" d="M220.6,18.91c4.2,0.5,8.35,1.26,12.21,3.11c14.63,6.32,18.91,21.83,12.18,35.76
		c-0.18,0.45-0.21,0.76,0.23,1.06c5.01,3.55,7.84,9.95,6.99,16.01c-1.47,13.52-18.2,19.95-28.42,10.98
		c-12.64-10.79-3.82-31.96,12.9-30.21c1.69,0.14,3.32,0.52,4.89,1.18c0.49,0.2,0.9,0.01,1.07-0.46c3.31-7.45,4.04-16.68-0.88-23.6
		c-10.5-14.54-32.91-13.3-47.72-6.73c-6.26,2.13-21.6,11.86-22.77,18.21c1.84,2.99,0.8,6.47-2.43,7.82
		c-6.19,2.56-10.6-7.33-3.79-9.76c1.15-0.43,2.79,0.02,3.79-0.77c10.14-13.59,26.63-21.06,43.22-22.8c0.19-0.02,4.34-0.18,5.93-0.06
		C218.93,18.74,219.89,18.82,220.6,18.91z M243.16,72.78c0.05-9.8-15.48-11.26-16.22-0.18C226.88,83.4,242.97,83.42,243.16,72.78z"
		/>
	<path class="st2" d="M169.81,95.58c4.2-0.15,9.48,0.9,11.84,4.85c1.31,2.29-0.2,5.46-2.28,6.23c-3.85,1.01-7.33-2.4-11.27-1.57
		c-6.01,0.17-9.28,6.82-8.67,12.2c-0.22,9.17,7.91,14.04,15.95,9.72c3.97-2.52,9.22,2.14,6.36,6.4c-2.06,2.94-5.78,4.16-9.23,4.53
		c-7.18,1.12-14.94-1.68-19.34-7.6C143.12,116.64,151.64,94.79,169.81,95.58z"/>
	<path class="st1" d="M255.07,72.78c0-4.12,0.06-8.24-0.02-12.36c-0.05-2.37,1.92-4.38,4.25-4.54c1.66,0.06,2.89,1.66,3.93,2.83
		c1.08,1.22,2.93-1.75,4.23-1.92c5.85-2.52,14.08-0.69,16.5,5.71c1.72,7.37,0.38,15.19,0.82,22.72c0.18,4.6-5.98,6.38-8.34,2.44
		c-1.88-5.74-0.42-12.24-0.83-18.25c0.29-4.26-4.52-7.57-8.31-5.51c-2.08,1.21-3.16,2.99-3.15,5.43c0.02,5.36,0.02,10.72-0.01,16.08
		c-0.19,4.92-7.53,6.07-8.97,1.02c-0.24-4.52-0.01-9.11-0.09-13.65C255.08,72.78,255.08,72.78,255.07,72.78z"/>
	<path class="st2" d="M119.23,119.5c-0.81,5.67,3.27,19.67-6.31,18.33c-2.8-0.5-4.02-3.8-3.77-6.55
		c-0.02-8.27-0.01-16.55-0.01-24.83c0-0.95-0.15-1.09-1.09-1.07c-2.47,0.01-5.22,0.55-7.29-1.14c-2.51-2.08-2.23-6.36,1.25-7.8
		c7.35-0.72,14.91-0.02,22.32-0.28c7.91,0.57,6.17,11.26-3.49,9.17c-1.21-0.14-1.6,0.11-1.6,1.32
		C119.22,110.93,119.22,115.21,119.23,119.5C119.22,119.5,119.23,119.5,119.23,119.5z"/>
	<path class="st1" d="M188.13,89.95c-4.42-0.28-9.52-1.24-12.21-5.09c-1.14-1.91-0.31-4.36,1.71-5.31c3.2-1.25,5.9,1.59,8.8,2.46
		c2.27,1.36,7.62-1,5-3.71c-3.28-2.19-7.11-3.5-10.69-5.12c-7.48-3.59-4.32-14.64,2.79-16.6c5.02-1.76,11.3-1.24,15.33,2.5
		c2.17,2.17,1.67,5.13-1.12,6.36c-3.37,0.83-6.24-2.71-9.78-2.11c-2.48-0.16-3.92,3.17-1.19,4.28c4.2,2.08,9.22,2.91,12.39,6.63
		C204.82,82.74,196.79,89.92,188.13,89.95z"/>
	<path class="st1" d="M238.81,120.4c-1.72,15.84-23.01,16.69-23.52-2.17c-0.26-6.49,0.43-14.21,7.11-17.3
		c9.33-3.75,14.97,2.81,16.33,10.93C238.97,113.28,238.95,119.1,238.81,120.4z M222.12,119.22c0.71,4.66,3.41,9.89,8.03,5.48
		c2.83-4.28,2.64-12.98-0.07-17.3c-1.45-1.93-4.17-2.12-5.72-0.39c-1.42,1.53-1.87,3.45-2.11,5.44
		C222.11,113.64,221.65,116.09,222.12,119.22z"/>
	<path class="st2" d="M279.44,127.09c-2.67,0-5.34-0.01-8.01,0c-2.13,0.02-3.87-2.68-2.39-4.41c3.68-4.53,7.56-8.9,11.25-13.43
		c5.96-6.26-2.31-12.07-5.3-4.21c-0.51,3.64-5.41,4.34-6.11,0.48c-0.38-15.61,25.91-13.06,19.74,2.8c-1.33,3.26-3.81,5.7-5.96,8.38
		c-0.33,0.86-4.78,4.34-2.52,4.46c2.92,0.38,7.88-1.22,9.83,1.33c0.88,1.27,0.37,3.55-1.05,4.19c-3.02,0.91-6.34,0.24-9.47,0.43
		C279.44,127.1,279.44,127.1,279.44,127.09z"/>
	<path class="st2" d="M253.16,127.08c-2.61,0-5.22,0-7.82,0c-2.3,0.08-3.94-2.76-2.37-4.56c4.19-4.89,8.28-9.85,12.26-14.91
		c3.68-4.83-2.86-9.22-5.81-4c-0.51,0.93-0.83,1.96-1.26,2.94c-0.92,2.53-5.03,1.83-5.43-0.92c0.29-19.1,33.92-10.4,14.9,9.67
		c-6.79,7.7-5.18,5.52,3.41,5.83c3.82-0.34,4.37,5.79,0.5,5.94C258.75,127.12,255.96,127.09,253.16,127.08
		C253.16,127.09,253.16,127.09,253.16,127.08z"/>
	<path class="st1" d="M200.87,131.89c-2.98-0.46-9.03,1.38-10.53-1.78c-1.96-3.57,12.35-14.62,13.52-19.73
		c0.98-5.31-5.62-5.82-7.11-1.38c-0.62,1.81-1.52,4.43-3.92,3.81c-4.04-0.96-2.5-6.57-0.54-8.84c5.3-7.6,19.98-4.29,18.66,5.89
		c-0.62,6.63-7.08,10.33-10,15.74c3.16,1.16,7.73-1.17,10.32,1.45c1.55,1.9-0.02,4.96-2.44,4.85c-2.65,0.05-5.3,0.01-7.95,0.02
		C200.87,131.9,200.87,131.9,200.87,131.89z"/>
	<path class="st2" d="M143.82,116.87c0,5.32,0.05,10.64-0.02,15.95c-0.03,2.25-1.07,3.99-3.22,4.93c-3.14,1.19-7.35-1.8-6.83-5.38
		c-0.02-10.2-0.01-20.4-0.01-30.6c-0.39-3.45,2.6-6.92,6.25-5.92c2.62,0.67,3.81,2.91,3.83,5.19
		C143.84,106.32,143.82,111.6,143.82,116.87z"/>
	<path class="st1" d="M244.1,131.35c11.24,4.02,23.35,5.79,35.1,2.95c3.18-0.75,6.27-1.84,9.37-2.85c3.82-0.7,6.03,5.79,1.6,7.13
		c-9.04,3.5-18.82,5.23-28.49,4.49c-5.33-0.55-10.66-1.6-15.74-3.39c-3.2-0.87-7.33-3.21-4.44-6.91
		C242.14,132.01,242.95,131.52,244.1,131.35z"/>
	<path class="st1" d="M204.82,72.68c0-4.06,0-8.11,0-12.17c0.19-5.77,8.85-6.27,9.19-0.2c-0.1,8.44,0.05,16.87-0.04,25.31
		c-0.01,4.03-6.23,5.85-8.31,2.02C203.84,82.98,205.22,77.61,204.82,72.68z"/>
	<path class="st1" d="M171.47,72.74c0,4.14-0.05,8.28,0.02,12.42c-0.09,5.91-8.76,6.13-9.15,0.24c-0.01-8.36-0.01-16.72,0-25.08
		c0-1.84,1.45-3.76,3.48-4.28c3.27-0.81,5.9,1.8,5.65,4.72C171.47,64.75,171.47,68.75,171.47,72.74
		C171.47,72.74,171.47,72.74,171.47,72.74z"/>
	<path class="st1" d="M214.63,47.28c-0.19,7.18-10.62,6.43-10.43-0.21C204.26,40.31,214.61,40.26,214.63,47.28z"/>
	<path class="st2" d="M101.6,74.19c-2.24-0.11-3.97-4.74-5.5-6.37c-0.84-1.22-0.38-2.3,0.35-3.34c1.11-1.58,2.22-3.17,3.37-4.73
		c1.02-1.37,2.67-1.48,3.55-0.3c1.39,2.28-1.57,4.32-2.51,6.22c-0.96,1.75,2.01,3.53,2.5,5.22
		C103.97,72.23,103.51,74.37,101.6,74.19z"/>
	<path class="st1" d="M296.08,118.89c-1.78,0.23-2.72-2.01-1.67-3.31c0.55-1.39,3.39-3.55,2.57-4.94c-1.19-2.03-5.24-5.63-1.4-7.06
		c2.41-0.56,4.35,4.51,5.88,6.06c0.91,1.22,0.41,2.72-0.44,3.82C299.58,115,298.35,118.85,296.08,118.89z"/>
</g>
</svg>
